/* XPM */
static char *c0239109d33e4c71ba03a4707ae4010cdT8sscyDr1CwwePo[] = {
/* columns rows colors chars-per-pixel */
"50 50 178 2 ",
"   c #705A36",
".  c #7D653A",
"X  c #312642",
"o  c #342946",
"O  c #362A49",
"+  c #3A2D4E",
"@  c #3C2F52",
"#  c #3E3153",
"$  c #503F4F",
"%  c #413456",
"&  c #44365B",
"*  c #47395E",
"=  c #483A5E",
"-  c #473F55",
";  c #463662",
":  c #473961",
">  c #4B3C63",
",  c #4E3E69",
"<  c #503F6B",
"1  c #60515F",
"2  c #7A694E",
"3  c #7E725F",
"4  c #4F4165",
"5  c #4F4069",
"6  c #514464",
"7  c #52426C",
"8  c #5B4A6E",
"9  c #554A66",
"0  c #5C536C",
"q  c #564572",
"w  c #584775",
"e  c #5A4A75",
"r  c #5D4C7B",
"t  c #594778",
"y  c #5F5373",
"u  c #61576F",
"i  c #604F7E",
"p  c #605474",
"a  c #645B72",
"s  c #62517D",
"d  c #675B7A",
"f  c #6D627F",
"g  c #71697E",
"h  c #70667F",
"j  c #94763F",
"k  c #8C754F",
"l  c #977A43",
"z  c #9D7E44",
"x  c #927848",
"c  c #8C7B5E",
"v  c #937D55",
"b  c #897D6C",
"n  c #887F75",
"m  c #9C8358",
"M  c #AA8644",
"N  c #AD8946",
"B  c #AD8B4D",
"V  c #A48242",
"C  c #B38E47",
"Z  c #B28E49",
"A  c #B4904A",
"S  c #BA944B",
"D  c #A38754",
"F  c #A78952",
"G  c #AA8B53",
"H  c #A58A59",
"J  c #928163",
"K  c #998767",
"L  c #938672",
"P  c #958977",
"I  c #A28C64",
"U  c #A28E6B",
"Y  c #A6906A",
"T  c #A49376",
"R  c #A5957B",
"E  c #A9987D",
"W  c #C39C4E",
"Q  c #C69F51",
"!  c #5F4A83",
"~  c #624F81",
"^  c #634E88",
"/  c #655283",
"(  c #685686",
")  c #6A5A86",
"_  c #675288",
"`  c #6A568A",
"'  c #6D5A8D",
"]  c #705D8F",
"[  c #6F5992",
"{  c #715D93",
"}  c #745F99",
"|  c #6E6283",
" . c #726685",
".. c #756D82",
"X. c #73648C",
"o. c #766A8A",
"O. c #7B7486",
"+. c #7B7487",
"@. c #756195",
"#. c #7B6E93",
"$. c #766299",
"%. c #7A659C",
"&. c #7D6A9D",
"*. c #7E7094",
"=. c #7B65A1",
"-. c #7E69A2",
";. c #837D8C",
":. c #837697",
">. c #816CA5",
",. c #856EA9",
"<. c #8771AC",
"1. c #8972AD",
"2. c #8D76B3",
"3. c #8F78B6",
"4. c #9079B7",
"5. c #927AB8",
"6. c #9D9282",
"7. c #8F869D",
"8. c #8C8697",
"9. c #938B9F",
"0. c #97939E",
"q. c #9E9996",
"w. c #A69A88",
"e. c #A69E93",
"r. c #ADA18C",
"t. c #B4A58B",
"y. c #ADA292",
"u. c #A6A19C",
"i. c #ACA59D",
"p. c #B3AA9D",
"a. c #B1A797",
"s. c #948BA1",
"d. c #9993A3",
"f. c #9F99AA",
"g. c #A09CA6",
"h. c #A39EAC",
"j. c #A8A5AD",
"k. c #B5AEA3",
"l. c #B0ADAB",
"z. c #BAB4AC",
"x. c #B9B2A7",
"c. c #AEABB3",
"v. c #ACA7B4",
"b. c #B4AFBB",
"n. c #B3B0B7",
"m. c #BEB9B3",
"M. c #B5B1BB",
"N. c #BBBABE",
"B. c #C2BEBB",
"V. c #C0BAB4",
"C. c #BEBCC2",
"Z. c #B9B4C1",
"A. c #C0BEC4",
"S. c #C4C2C4",
"D. c #CAC7C3",
"F. c #C7C5CA",
"G. c #CCCBCC",
"H. c #CECBC7",
"J. c #CECCD1",
"K. c #D5D4D4",
"L. c #D9D7D7",
"P. c #D8D7D8",
"I. c #DCDBDD",
"U. c #D6D4D9",
"Y. c #E1DFDD",
"T. c #DFDEE0",
"R. c #E3E3E4",
"E. c #E7E7E8",
"W. c #EBEBEC",
"Q. c #EFF0EF",
"!. c #F0F0EF",
"~. c #EFEFF0",
"^. c #F3F4F5",
"/. c #F4F4F4",
"(. c #F5F5F5",
"). c #F5F5F6",
"_. c #F6F6F6",
"`. c #F3F3F3",
/* pixels */
"(.`.`.`.`.`.`.`.`.`.`.`.`.`.`.`.`.`.`.`.`.`.`.`.`.`.`.`.`.`.`.`.(.W.K.V.w.J b 6.D.Q.`.^.`.`.`.`.`.!.",
"`.`.`.`.`.`.`.`.`.`.`.`.`.`.`.`.`.`.`.`.`.`.`.`.`.`.`.`.`.(.!.L.k.R H B A Z N S H p.~.`.`.`.`.`.`.`.",
"`.`.`.`.`.`.`.(.`.`.`.`.`.`.`.`.`.`.`.`.(.`.`.`.`.(.(.W.P.z.E D Z A G I w.t.E G W G z.(.`.`.`.(.`.`.",
"`.`.`.`.`.(.Y.H.^.`.`.`.`.`.`.`.`.`.`.`.(.(.(.W.I.D.p.R H Z N x Y p.F.E.W.`.~.z.G Q m P.`.`.`.`.`.`.",
"!.`.`.`.`.W.t.v m.E.`.(.).(.).`.`.W.E.I.H.V.y.R H G S S B I r.D.E.(.).`.`.`.`.`.p.Z z q.(.`.`.`.`.`.",
"`.`.`.`.`.E.Y C G U w.a.k.x.k.p.r.E c v B B Z C S Q S R B.R.^.(.`.`.`.^.`.`.`.`.R.I C T W.`.`.`.`.`.",
"`.`.`.`.`.W.P . V M V N Z N N M M M l l x v J 6.J S G K.).`.`.`.`.`.`.^.S.U.^.`.`.R S Y E.`.`.`.`.`.",
"`.`.`.`.`.`.L.B.n.P 3 c J J J L 6.e.k.N.J.I.W.).j.z G K.(.`.`.`.`.`.`.(.l.n I.W.K.K W U E.(.`.`.`.`.",
"`.`.`.`.!.`.`._.(.`.W.E.E.E.W.~././.(./.(./.`._.u.j G L.(.`.`.`.`.`.`.(.K.2 k Y H S N p.`.`.`.`.`.`.",
"!.`.`.`.`.`.`.`.`.`.`.`.`.`.(.`.`.`.`.`./._.(.E.u.j F B.E.`.(.(.`.`.`.`.`.S.L v m J i.W.`.`.`.`.`.`.",
"`.`.`.`.`.`.`.`.`.`.`.`.`.`.`.(.`././.~.R.F.h.#.1 j l u :.0.C.I.`.(.`.`.!.`.`.I.L.R.`.`.`.`.`.`.`.`.",
"`.`.`.`.`.`.`.`.`.`.`.`.`.`.`.(./.I.b.s.:.e i ~ $ .   - 2.] 7 X.;.A.E.^.`.`.`.`.`.`.`.`.`.`.`.`.`.`.",
"`.`.`.`.`.`.`.`.`.`.`.`.(.`.W.P.s.p i ,.$.i { 1.{ 8 e $.3.,.e q : / ..C.Q.^.`.`.`.`.`.`.`.`.`.`.`.`.",
"`.`.`.`.`.`.`.`.`.`.(.(.Y.0...p , , e < 8 i >.4.4.3.3.2.,.r + # ' 7 4 9 9.L.`.`.`.`.`.`.`.`.!.`.`.`.",
"`.`.`.`.`.`.`.`.!.`.`.I.a & @ 7 } > ~ e * i i / ( / ~ 7 q ~ r * , e / e ) u S._.`.`.`.`.`.`.`.`.`.`.",
"`.`.`.`.`.`.`.`.`.`.!.;., e X 7 r { 2.2.i = q , % 7 q ` ,.2.3.{ 7 ) 5 # @.s | F.`.`.`.`.`.`.`.`.`.Q.",
"`.`.`.`.`.`.`.`.(.E.f.] * > > , t 1.` $.>.7 1./ < < ; ,.{ 7 @.<.> e : 7 5 ' $.a J._.`.`.`.`.`.`.`./.",
"`.`.`.`.`.`.`.`.`.d.7 ,.{ 7 / % _ } ' 3.} q %.7 =.>.q q e } r >.& e / q 5 + * s *.R.`.`.`.`.`.`.`./.",
"`.`.`.`.`.`.`.`.Z.$.[ e ,.* , O i %.i ( > i %.q >.( ~ % ~ 2.' i ~ <.r _ # + * [ 7 h.`.`.`.`.`.`.`.`.",
"!.`.`.`.`.`.`.I.:.{ ' 7 { : i i > %.] 7 > : ,./ w ` _ 7 q ~ q o > e 8 %.r { # 4 5 9 G._.`.`.`.`.`./.",
"`.`.`.`.`.`.`.d.%.,./ ` < % { ,._ % & > < > > { } [ > i ( + % ' ' r > ` y <.* o 5 r g P.`.`.`.`.`.`.",
"`.`.`.`.`.(.J.- , / ` , > % $./ r % ` =.` >.' O & % i { @.7 >.s 7 @.%.# * * & # ' s 5 ..E.`.`.`.!./.",
"`.`.`.`.`.!.O.* * O 7 : s , i / > < ,.q t < 1.< % > e %.i r ,.e =.@.2.4 r q > O # > ` @.C._.`.`./.~.",
"`.`.`.`.(.G.6 % q & r s q % e i + ! } q ,.e 1.] e ] 7 , % 6 1.q -.2.%.& <.` r t & % ( 7 f._.`.`./.`.",
"`.`.`.`.(.j., > ~ , + = = 7 / q ; < ` , >.1.5./ q ] ,./ * @ $.%.8 r = & %.@.8 > 7 % _ ~ 7.!.`.`.`.`.",
"`.`.`.`.`.h.r * 7 < , 7 * % ' 7 & , [ 7 q } ` % ' ,.@.7 ] & , >.1.>.%.8 * : * & / e 7 ,.:.R.`././.~.",
"`.`.`.`.(.v.% < % # / 6 r * # + ; @ ~ } t # & 7 , , 7 @.7 ' q # / ] i & O ( ` & * % i 8 = B._.`.!./.",
"`.`.`.`.(.0., * w % * , , X * i < O ; ^ >.e ( %.7 & 7 7 > 7 % * > + q @.r 8 e > 8 > 7 / & b./.`././.",
"`.`.`.`.`.O./ 7 r ; %.1.%.7 , >.w % @ % > : w { _ * > 7 q q * $.5.$.& e q i > r q ' : 7 % n./.`.~.`.",
"`.`.`.`.W.g 7 > # [ %.e 7 ' : , * < q _ r : : r ( q r ] 1.e q i &.' 7 ` ( 7 / + * ` * # % c./.`././.",
"`.`.`.`.!...* > w >.q >./ / w & * , < ~ s { > % w # w $.%.i ~ > / r / e { 7 { & > + w & & g./.`./.~.",
"`.`.`.`.(.0.* % ~ &.s 2.] >., * * & @ r / < i * ( > : 7 p i * w s * e ] q { / , 4 7 q + < s.`.`.`./.",
"`.`.`.`.(.J.8 # t ,.q -.3.{ > ,./ % s { e / e 7 ( { @ ~ -.>.%.* > , # @.1.{ # % & 7 7 O e 8.Q.!./.!.",
"`.`.`.`.`.T.d > ; $.$.q 7 # ` _ * @ =.8 =./ s q : % r ,.r 7 @.[ # ' 5 O * & : * : # 7 7 e c.`.`.!.`.",
"`.`.`.`.`.R.0 q # q 2.2./ % q > * O %./ 7 7 >.7 @ + } $.r =.( 2., { >.s = s { w r q ' * g E.`.`.`./.",
"`.`.`.`.(.K.X.> q , ,.5.` 5 t 5 * > i 2.>.<.{ @ > @ { $.r 2.1.2., % q > O 7 <.@.7 7 / ) S._.`.`./.~.",
"`.`.`.`.`.Y.o.w e , %.` * > w r : e + e ] r % > { e ! ,.q %.,.` + # , 7 t + % o @ @ > ;.!.`.`.`.`./.",
"`.`.`.`.`.(.g.4 7 & : 5 q 7 & , 6 e s % # & 7 ( %.( # =.>.s e ( t % -.{ $.6 # t { %.r j.`.`.`.`./.~.",
"`.`.`.`.`.`.W.O.q q > / 7 : + q 1.) i 6 * # i 4 @ % # , >.4.2.5.@.& 7 r s & ~ { w ` >.S._.`.`.`.!./.",
"`.`.`.`.`.`._.M.q : + > &.<.%.e e 6 7 7 = r , O * * % , , t s ' ' @ : 7 * % %.i ' q *.I.`.`.`.`.`.`.",
"`.`.`.`.`.`.(.G.p , * >.@.e r $.: $.$., 8 >.: 7 %.{ ; } &.@.{ e % e e % & @ ` / ` -.d.!.`.`.`.`.`.`.",
"`.`.`.`.`.`.`.W.;.# ` %.q %.7 @.q q ( > & , % , 7 w O r ,.@./ ' e r e e : + ; ` q X.K.`.`.`.`.`.`./.",
"`.`.`.`.`.`.`.`.E.O.` ( { ,./ >.< < : X w $.{ { * X < < # r ] r / * i r w : 7 > d n.(.`.`.`.`.`.`.!.",
"`.`.`.`.`.`.`.`.`.M.w i ( 2.4.' % , % * ,.e 7 i $.O / { 7 &.e [ e i & + > * ) 9 C.`.`.`.`.`.`.`.`.`.",
"`.`.`.`.`.`.`.`.`.W.d.e : r ( @ + 7 7 7 =., >./ 1.: & & r { / ` i { + X % % 6 M.(.`.`.`.`.`.`.`.`.`.",
"`.`.`.`.`.`.`.`.`.`.`.A.8.0 t w , i r > } > >.2.1.% : / q ,.s i 1.' O : 7 6 c.!.`.`.`.`.`.`.`.`.`.`.",
"`.`.`.`.`.`.`.`.`.`.`.(.`.I.d.p * : & @ =.w < ` < @ w ,., { 2.<.} , & * o.S.`.(.`.`.`.`.`.`.`.`.!.(.",
"`.`.`.`.`.`.`.`.`.`.`.`.`.(.`.I.j...i % r 1.` q ~ r ; >._ # , 7 < ( h c.E.).`.!.`.`.`.`.`.`.`.`./.!.",
"`.`.`.`.`.`.`.`.`.`.`.`.`.`.`.`.`.Q.I.N.O.) @.X.o. .0  .f p / ( ] 8.I._.(.`.`.`.!.(.(.!.(.!././.!./.",
"`.`.`.`.`.`.`.`.`.`.`.`.`.`.`.`.`.`.`.(.W.F.N.K.E.E.E.R.R.K.n.c.A.W.(.(.`.`.(.!.`.`.`.`.`.(.!././.`."
};
