/* XPM */
static char *_b32c9322d6a4145e42a36c09fd95c8dd8rqnPMH76jbnFiq[] = {
/* columns rows colors chars-per-pixel */
"50 50 231 2 ",
"   c None",
".  c #15031D",
"X  c #150829",
"o  c #150C33",
"O  c #15123D",
"+  c #151749",
"@  c #161C54",
"#  c #161F5A",
"$  c #39005B",
"%  c #15215D",
"&  c #1E1F62",
"*  c #341E7A",
"=  c #351974",
"-  c #2E176F",
";  c #162362",
":  c #19266C",
">  c #182467",
",  c #1A2975",
"<  c #1C2C7C",
"1  c #0F2462",
"2  c #29257A",
"3  c #34227E",
"4  c #32297B",
"5  c #280B8E",
"6  c #1D2E82",
"7  c #1F318A",
"8  c #1B3086",
"9  c #282B86",
"0  c #322582",
"q  c #332688",
"w  c #20328D",
"e  c #233494",
"r  c #24369B",
"t  c #24399E",
"y  c #2A3294",
"u  c #323294",
"i  c #2539A3",
"p  c #273CAA",
"a  c #283EAE",
"s  c #2F37A2",
"d  c #293FB1",
"f  c #2D3DBD",
"g  c #2D34AA",
"h  c #2A0AB1",
"j  c #2A41B5",
"k  c #2C43BC",
"l  c #2649A7",
"z  c #2376AC",
"x  c #2671BE",
"c  c #3600DB",
"v  c #350BDD",
"b  c #3111CE",
"n  c #352DDE",
"m  c #3533DE",
"M  c #353BDE",
"N  c #2D34C1",
"B  c #362DE0",
"V  c #3635E1",
"C  c #2D45C3",
"Z  c #2F47C9",
"A  c #2F4BCB",
"S  c #2D49C4",
"D  c #304ACF",
"F  c #3047CC",
"G  c #314BD3",
"H  c #3545DE",
"J  c #334DDC",
"K  c #3145D0",
"L  c #2F5ADA",
"P  c #3351DE",
"I  c #3258DD",
"U  c #3150D7",
"Y  c #2E58C7",
"T  c #007EDD",
"R  c #1F6FDE",
"E  c #2C69DE",
"W  c #2777DE",
"Q  c #3E75DE",
"!  c #3645E1",
"~  c #354DE0",
"^  c #3452E1",
"/  c #335BE1",
"(  c #385BE0",
")  c #2F5EE1",
"_  c #1177E1",
"`  c #2E69E1",
"'  c #3264E2",
"]  c #326BE4",
"[  c #3863E4",
"{  c #2B74E0",
"}  c #297AE0",
"|  c #257BE0",
" . c #3376E4",
".. c #5874DB",
"X. c #5668D9",
"o. c #7564D6",
"O. c #A100CA",
"+. c #A31ACF",
"@. c #9D3BD2",
"#. c #9D37CD",
"$. c #A03CD3",
"%. c #A030CE",
"&. c #9B0BCC",
"*. c #9D48D3",
"=. c #8254D2",
"-. c #9D5ADD",
";. c #9C56D9",
":. c #9949CC",
">. c #A247D8",
",. c #A255DD",
"<. c #8662D3",
"1. c #9768D6",
"2. c #8975D8",
"3. c #AC57EA",
"4. c #9979E8",
"5. c #9C63E0",
"6. c #A962EB",
"7. c #0084DE",
"8. c #0089DF",
"9. c #1E85DD",
"0. c #1E8CDF",
"q. c #1C92DF",
"w. c #2282DD",
"e. c #238BDF",
"r. c #2B86DE",
"t. c #3786DE",
"y. c #2E99DA",
"u. c #0084E3",
"i. c #018CE5",
"p. c #088EE4",
"a. c #1F8DE1",
"s. c #1C89E4",
"d. c #0092E1",
"f. c #0297EB",
"g. c #1D92E2",
"h. c #1F93E9",
"j. c #1394E1",
"k. c #0B9BF8",
"l. c #2384E1",
"z. c #218DE2",
"x. c #2B8AE5",
"c. c #2192E5",
"v. c #2C92E3",
"b. c #2193EA",
"n. c #289AE9",
"m. c #3494E4",
"M. c #229AF4",
"N. c #2598F5",
"B. c #379BF2",
"V. c #328EE2",
"C. c #00A3E9",
"Z. c #1FA6E7",
"A. c #1BB5ED",
"S. c #0FB5F2",
"D. c #28A8E8",
"F. c #28B5E8",
"G. c #26A4F9",
"H. c #2ABBF4",
"J. c #24B7F2",
"K. c #32BAF9",
"L. c #488CDD",
"P. c #4998E4",
"I. c #508AE1",
"U. c #749AE3",
"Y. c #738FE2",
"T. c #57BCF2",
"R. c #55ABF0",
"E. c #6CA6E8",
"W. c #73A7E8",
"Q. c #6CB7E6",
"!. c #7BA8F4",
"~. c #6CB4F6",
"^. c #7DB1D6",
"/. c #00CFFC",
"(. c #07C7FA",
"). c #1BCCFC",
"_. c #00D5FF",
"`. c #01DBFF",
"'. c #08D8FB",
"]. c #19D5FC",
"[. c #17D0E5",
"{. c #26DAE5",
"}. c #27C7F8",
"|. c #24D5FE",
" X c #2AD3FE",
".X c #25DBFF",
"XX c #24DAF7",
"oX c #36D7FF",
"OX c #32C9EC",
"+X c #1DE9E6",
"@X c #02FFE8",
"#X c #1EF5E5",
"$X c #1BFEE5",
"%X c #1BFDEC",
"&X c #1AF9E9",
"*X c #00E3FF",
"=X c #00E7FB",
"-X c #1CE9F5",
";X c #04F6F6",
":X c #1AFAF1",
">X c #00EBEA",
",X c #24E7E9",
"<X c #2AFBE6",
"1X c #32FBE7",
"2X c #22E4F3",
"3X c #23E3FD",
"4X c #23ECF9",
"5X c #24F6F3",
"6X c #6BC5DB",
"7X c #4AC7F6",
"8X c #53C3F8",
"9X c #53D8E6",
"0X c #71CEF1",
"qX c #8D8ED5",
"wX c #8589E2",
"eX c #9181E6",
"rX c #86AEE9",
"tX c #93BAF0",
"yX c #A6BEEB",
"uX c #83DEFF",
"iX c #B3CCF1",
"pX c #B8D0F2",
"aX c #BCE9FF",
"sX c #A8E6FE",
"dX c #CBD8F2",
"fX c #D3F8FF",
"gX c #CFEBFF",
"hX c #E4EAF9",
"jX c #E9F7FD",
"kX c #FDFFFF",
"lX c #F0FAFF",
/* pixels */
"                                                                                                    ",
"                            .X.X X|.|.|.|. X_./._._.                                                ",
"                          3X4X.X3X3X.X.XoX_.0XgXaXsX3X.X  h.                                        ",
"                                      J.}._.uXaXkXlX(..XoX|.J.b.                                    ",
"                                    x.W a.D.C.f.0XuX]..XXX.X}.b.z.b.                                ",
"                            ~.tXtXW.k.n.a.9.r.L.p.C.}.2X:X%XXXs.b.z.h.                              ",
"                          rXiXhXhXpX7.z.c.q.g.j.t.Q I n.}.$X&XXXA.b.b.g.a.h.h.                      ",
"                      u.!.kXdXT P.m.g.l.W W W } ' ~ J n ' -X:X$X5XXX9.9.z.M.c.                      ",
"                      i.R.dXrXT 8.7.{ / ! ~ ~ J ~ ~ / J / x.H.4X$X&XJ.D.0.0.a.M.                    ",
"                    h.z.p.T 7.V.Q [ ! ~ ^ J ^ ^ ^ ^ ~ ^ ^ m ( x.,X$X.XG.L 9.a.a.g.h.                ",
"                    M.z.z.v.{ P H M ^ J P ^ P P J J ^ D C P ~ c {.$X%XF.M z.g.9.M.c.                ",
"      .X.X          b.a.w.J ^ ] ] ' ~ ^ ^ J D k C C C k k S S N D.XX$X+X}.c.e.a.h.z.                ",
"                h.c.0.Z.D.] F.3X-X}.M U G k k k j j j j j j j j h W $X+XJ.] E g.0.9.b.h.            ",
"                h.a.9.H..X-X&X$X{.F.J D j k k j r r r r r r r r 5 z $XF.c P / { e.q.M.h.  .X.X      ",
"            b.G.9.h.}.].:X$X,XD.^ v D C j j s r r r r r t t r t 5 z 2XD.b P ~ H ' { M.s.  _._..X    ",
"          b.z.a.9.D..X&X#Xy.' v ^ D 6 e r r r r r r r r r 9 0 0 * u x x f J ^ P ! ^ N.f.  lXfX=X    ",
"          b.b.a.}.XX&X$X,X! B ' l 7 8 i a i e 6 6 7 6 6 6 e y e * = 5 g N J ^ ~ | 9.B.i.  kXjX'.    ",
"          h.a.g.}.3X$XXXJ.' J A < 6 j p t r 7 < < , ; : < 6 7 r q 0 3 s C U ^ J { s.a.a.z.OXoX3X    ",
"        b.h.s.9.].4X:Xm.c P j e r r r r r 6 , , ; # ; # ; , w i r r < i C J P P ! P a.a.h.(._.*XT.  ",
"        h.r.D.J.$X,XN. .J D Z C j a r r 8 6 , # ; ; ; ; > < 7 w r r , r C J ^ P ~ / a.0.e.).7XE.4.3.",
"          i.].5X$X{.c J P D C k q 0 q 2 2 * 2 % ; ; ; ; ; > , < 6 e p d C Z D ^ ~ / e.0.e./.8X+.*.  ",
"          OX,X$X$X{.M / J k s q = 3 y 9 2 & & ; ; ; # # ; # : 6 < 7 k C C j C ^ ^ I 9.Z.}.].T.,.    ",
"          @.0X@XV.' ~ ~ G Z u $ * 0 8 6 6 ; ; ; # @ o @ > ; : 6 6 7 6 i d j Z ^ ~ / 9.J. X`.7X*.    ",
"      ;.1.qXR.(.^ m ^ F k C g u t e < 6 < > # # O o X + @ # : 6 e r 6 6 7 d Z ^ ~ / w.A. X8XE.3.    ",
"      O.qX@X[.W ' ^ P Z j C d i i e < 6 < : + . X X o O + # : 6 e r i 7 < a C ^ ^ / | A..X2.#.;.    ",
"    6.U.T.4XS.| / J ^ Z j C i , e r < 6 < ; # @ o X X @ ; # : 6 e i r i p Z J ^ J I W A.].4.@.      ",
"    ,.7X_.D.q.q./ ! ^ F j C i < t e < < < ; ; ; # # @ # ; % : 6 e r r d C J ^ P ! ' H.)..XeX>.      ",
"    -.;.2.t.0.e./ ~ J J J C r , e e 6 6 < ; % % ; ; ; ; ; % : 6 : < r i j J ^ ^ H ]  X.X].eX$.      ",
"    ,.o...T 7.r./ ~ J ^ J C i e e 7 e 7 6 : ; ; % % ; % ; % : 6 6 6 i r r J ^ ^ H ]  X|.|.4.:.      ",
"    -.iXsXyXW.8./ ~ ^ ^ J A C k k j < e e 6 , ; ; ; ; ; ; : , < 2 9 C a i J ^ ^ J ]  X'.`.4.@.      ",
"    ,.iXfXkXpXT / ~ ^ ~ J ^ A j k j < < < 6 , % ; ; ; % ; < 6 6 = 0 C d i G ^ / M / ).T.W.4.>.      ",
"    ,.F.}.iXU.7.^ J ^ ^ ^ ^ J D C a < 6 6 < < , ; ; , , < < 6 < 9 y e a C J ~ M v.H.;XQ.O.-.        ",
"    8XoX(.u.i.e.l.{ ~ ! J ^ ^ / A j , 9 < 6 6 6 < < 6 6 < 2 * 3 e t e i k J / H {.:X%XOX..g.        ",
"    ;X.X}.v.z.z.q.l.! ] ] n B m N a 8 2 = = 2 2 6 6 6 < 9 * q y e i k k Y c m.&X#X#XXXA.d.          ",
"     X X.X  b.G.0.} M K.XXm.m.v.Y C k i w 4 0 0 < 6 6 < 6 r r e i l k K ) { OX$X[._ 0.b.n.          ",
"      .X.X    v.g.} M S.*X-X$X$Xt.m A C k j i r 6 < < 6 w r i p f k l b H #X$X[.D.| 0.c.h.          ",
"      .X.X      c.z._ Y.W.|.-X<X .n ^ D j i i d r 7 e e i w i C k k N y.{.<X+XR a.a.M.b.            ",
"      .X.X      c.g.d.=.:.o.9X@X,XF.J D j , r C f d r i r < w p j S n F.-XD.y.g.z.g.b.h.            ",
"      .X.X      c.0.e.Q X.O.rX<X1X,Xc ~ U j j C k j r w 6 6 r j k C S L  .E W a.M.a.                ",
"      3X.X      c.M.e.8...=.<.2.1X>X[ ] ( ^ D j k j 6 6 w j C S U P H E w.q.g.q.z.h.                ",
"                c.a.M.b.t.T o.+.6X9X-XV.c I J C C p > p G P ~ J ! ^ ' l.h.z.z.b.                    ",
"                    h.a.b.d.I.o.&.qX@X,XD.P M ^ G S j J ^ ~ / { { W 0.0.0.a.a.M.                    ",
"                      c.M.e.8.d...y.=X5X1XH.x.m ~ ^ ^ ^ ^ ! E q.a.a.a.a.0.M.c.                      ",
"                          c.n.r.P.R.7X/.'.$X2X}. .M J E l.| l.a.a.e.a.h.c.                .X.X      ",
"                          c.s.B.dXjXkXpX~.OX-X5XD.v.c.e.0.q.q.0.h.M.G.a.s.              |.|..X      ",
"                              c.P.tXhXhXdXI.S.`._._. XH.c.e.w.e.l.w.}      X|.                      ",
"                                  u.k.N.P.f.R.~.E.T.`.]. XJ.D.J.}.    *X`.4X.X.X                    ",
"                                                $.1.U.7X`.'._.`.*XoXW.!.!.7X                        ",
"                                                    @.2.wXwXwXwXwXwX>.%.                            ",
"                                                                                                    "
};
