/* XPM */
static char *_7b49a033bc84f059b5038388b9e5181fR22YkBu0McZz4re[] = {
/* columns rows colors chars-per-pixel */
"50 50 235 2 ",
"   c #080507",
".  c #100E0C",
"X  c #1B1918",
"o  c #292627",
"O  c #342D2A",
"+  c #34372B",
"@  c #343434",
"#  c #3B3B3B",
"$  c #383836",
"%  c #2C3031",
"&  c #2C221B",
"*  c #473D38",
"=  c #553E3D",
"-  c #703827",
";  c #3F423F",
":  c #43423D",
">  c #4A423A",
",  c #56493C",
"<  c #475F37",
"1  c #745238",
"2  c #437F30",
"3  c #3C3E41",
"4  c #413F41",
"5  c #3F4444",
"6  c #434343",
"7  c #4E4C4C",
"8  c #4A4846",
"9  c #554B45",
"0  c #4F514E",
"q  c #575149",
"w  c #5A5957",
"e  c #4C4D58",
"r  c #665949",
"t  c #6D5E55",
"y  c #605E5B",
"u  c #735E56",
"i  c #6D5546",
"p  c #5F605D",
"a  c #5B7041",
"s  c #666547",
"d  c #786649",
"f  c #6A6357",
"g  c #766A56",
"h  c #7D7159",
"j  c #7A7348",
"k  c #5C5E62",
"l  c #696866",
"z  c #776A63",
"x  c #7B736A",
"c  c #777876",
"v  c #6C6D71",
"b  c #963722",
"n  c #863C2E",
"m  c #98422B",
"M  c #944D35",
"N  c #A34A37",
"B  c #A45939",
"V  c #975746",
"C  c #A35044",
"Z  c #836B4D",
"A  c #89694C",
"S  c #846D52",
"D  c #9B6351",
"F  c #847354",
"G  c #8B7453",
"H  c #8C7955",
"J  c #8B7B5B",
"K  c #86745A",
"L  c #947A57",
"P  c #8B744E",
"I  c #AD684A",
"U  c #B07857",
"Y  c #83736B",
"T  c #887965",
"R  c #887B75",
"E  c #917D75",
"W  c #8F6F65",
"Q  c #AB756E",
"!  c #558F35",
"~  c #69993D",
"^  c #61922F",
"/  c #5E9941",
"(  c #679747",
")  c #668E55",
"_  c #71A84F",
"`  c #798371",
"'  c #8A815E",
"]  c #97835C",
"[  c #B99E5F",
"{  c #92B75B",
"}  c #89816B",
"|  c #968569",
" . c #8A8479",
".. c #978977",
"X. c #9D917D",
"o. c #B3956A",
"O. c #A5947A",
"+. c #B79876",
"@. c #AD886F",
"#. c #91A86C",
"$. c #B4A377",
"%. c #CC975A",
"&. c #C59670",
"*. c #CFAC72",
"=. c #9FC97A",
"-. c #E6CA79",
";. c #7E8081",
":. c #858585",
">. c #8C8A87",
",. c #989788",
"<. c #9A9A96",
"1. c #989896",
"2. c #908F8B",
"3. c #A4988A",
"4. c #B39B87",
"5. c #A69C95",
"6. c #B48D86",
"7. c #99A985",
"8. c #A8A28C",
"9. c #B4A689",
"0. c #ABA196",
"q. c #A9A59A",
"w. c #B4AA9B",
"e. c #B6A897",
"r. c #B9B19A",
"t. c #A9B38B",
"y. c #9EA3A1",
"u. c #A4A4A4",
"i. c #A5A9A4",
"p. c #ACACAA",
"a. c #AAAAA6",
"s. c #B4ADA4",
"d. c #B9AEA4",
"f. c #B4AEA8",
"g. c #B6ABA8",
"h. c #B5B2A4",
"j. c #BCB3A6",
"k. c #B4B2AC",
"l. c #BCB4AB",
"z. c #BBB9A9",
"x. c #ACADB0",
"c. c #B4B4B3",
"v. c #BCB5B3",
"b. c #BCBBB5",
"n. c #BCBCBB",
"m. c #B5B9B6",
"M. c #ABB1A9",
"N. c #C6989A",
"B. c #C6B899",
"V. c #CDB492",
"C. c #C3B5A4",
"Z. c #C5B9AB",
"A. c #CBBDAD",
"S. c #C5B6A8",
"D. c #C3BCB4",
"F. c #C7BBB5",
"G. c #D6BDB4",
"H. c #D1B4A4",
"J. c #BFC1BE",
"K. c #BBCBBD",
"L. c #B7D292",
"P. c #DBC694",
"I. c #D5C6AA",
"U. c #CDC2B3",
"Y. c #C4C2BC",
"T. c #CBC4BC",
"R. c #CBC6B8",
"E. c #D2C5B5",
"W. c #D3C8B6",
"Q. c #D2C6BC",
"!. c #D4CBBB",
"~. c #DAC9BB",
"^. c #DBC3BC",
"/. c #D7D1BF",
"(. c #CFCDAE",
"). c #E3D6AC",
"_. c #E8CEAA",
"`. c #BDBFC1",
"'. c #BFC4C5",
"]. c #C4C4C4",
"[. c #C7CAC4",
"{. c #CBCAC4",
"}. c #CBCBCB",
"|. c #C8C7C6",
" X c #D4CCC2",
".X c #D3CECB",
"XX c #D9CEC7",
"oX c #CDD1CC",
"OX c #C5D3C6",
"+X c #DBD1C1",
"@X c #D3D2CC",
"#X c #DBD4CC",
"$X c #DBD9CB",
"%X c #CDCDD0",
"&X c #CFD6D0",
"*X c #D3D4D3",
"=X c #D5D8D5",
"-X c #DADAD5",
";X c #D5DBD9",
":X c #DCDCDC",
">X c #D8D5D4",
",X c #D0CFD0",
"<X c #E1D8C9",
"1X c #E1DBD4",
"2X c #E1DCDB",
"3X c #DEE2DE",
"4X c #E2E2DD",
"5X c #E9E4D9",
"6X c #DCDEE0",
"7X c #DDE3E1",
"8X c #D7E0E0",
"9X c #E3E3E3",
"0X c #E5EBE5",
"qX c #EAEAE6",
"wX c #E5E6EA",
"eX c #E6ECEA",
"rX c #EBEBEB",
"tX c #E8E7E7",
"yX c #F3EDE7",
"uX c #EBF2ED",
"iX c #E8F2E8",
"pX c #F1F1ED",
"aX c #EDEEF1",
"sX c #F0EBF0",
"dX c #EEF4F2",
"fX c #F6F6F6",
"gX c #F3F3F3",
"hX c #F5FBF5",
"jX c #F6FCFB",
"kX c #F9F9F9",
"lX c white",
"zX c #FEFEFE",
"xX c #FCFDFC",
"cX c #FEFEFE",
"vX c #F9F7F6",
/* pixels */
"xXxX9X|.*XxXxX:X}.:XxXxX*X|.9XxXxX*X}.rXxXgX}.}.gXxXrX].}.kXxX9X].*XxXxX:X}.:XxXxX*X}.9XxXxX*X|.tXxX",
"xXxX9X|.=XxXxX:X|.:XxXxX*X|.9XxXkX}.|.rXxXgX}.}.fXxX9X,X6XxXxXaX=X:XxXxX:X|.:XxXxX*X}.6XxXkX}.}.rXxX",
"=X*XtXfXrX*X*XrXkXtX*X-XaXfX9X,X-XgXgX7X*X:XfXfX=X:Xu.1.n.u.2.2.:.n.:X,XtXfXrX*X*XaXkX9X,X=XgXkX6X*X",
"}.].tXxXfX}.].fXxXrX].}.kXxX9X].%XxXxX:X].*XxXxX*X}.c.7 o > , $ @ 7X}.].gXxXgX].}.fXxXtX].}.xXxX:X].",
"rXrX9X6X9XrXrX9X6X9XtXrX9X:X9XrXtX9X:X9XrX9X6X6X9XrXD.z   5.F.X w fX9XrX9X9X9XrXtX2X9X9XrXtX9X6X9XrX",
"xXxX2X`.,XxXxX*X`.:XxXxX*X].9XxXxX|.].rXxXfX].|.xXxX{.* X k l % w :XxXxX*Xn.*XxXxX*Xn.:XxXxX}.`.rXxX",
"rXaX9X-X:XrXaX9X-X9XrXrX:X-X9XrXrX:X-XrXaXrX-X-X].5.Y & O >.|.m.Y.9XaXaXwX6X9XgXgX9X6XtXgXaX:X-XtXaX",
"}.|.rXxXkX].].gXxXaX|.}.kXxX9X].}.xXxX:XY.*XxXrXt i , * O $ |.fXxXrXY.D.XXqX#Xg.k.1X5X.Xl.{.fXxX:X].",
"*X*XtXxXaX,X,XrXxXrX,X*XgXxX9X}.*XgXxXtX=X7XxXhXx O X O = r ..X. .X.....| X.T 3.O...} O.O.T Y.xX2X}.",
"kXxX6X}.>XxXxX:X}.:XxXkX*X}.rXxXkX@XY. XT.w.X.| ,.3.t ..r.F.a.d.v.F.z.D.{.D.D.Q.Y.z.Z.F.d.D.,X%XrXxX",
"xXxX2X].*XxXxX:X].:XxXxX>XD.Q.E.8.X.| 4...4.C.e.Q.F.Q.#X#X1X#X1X#XE..XQ.Q.Z.E.W.S.Z.W.Z..XxX*X].rXxX",
":X=X9XgXtX-X:XrXgXtX:XT...O.O...e.e.w. XU.!.W.#XS.F.G.~.<X<XXXXXXX#XfX$XA.A.W.E.C.E.A.v.:X-XrXgX6X-X",
"|.].rXxXgX|.].aXxXrX`.|.d.Z.U.U.!.J.@XT.S.I. XS.*.-.-.P.I.<X.X2XqX1X-X4XZ.E.E.A.E.I. X9X].}.xXxX:X].",
"9X9X9X9X9X9X9X9XtX9X9XtXXXF.A.E.F.T.rX1Xz.U.I.[ *.%.%.&.o.B.5X<XR.U.!.U.E.~.E.A.E.A.:XwX9X9XtXtX9X9X",
"xXxX9X'.*XxXxX:X`.:XxXxXY.E.E.A.E.S.C.{.3XR.A U o.+.B.H.~.W.V.P.U././.Q.Q.Q.E.E.E.F.].6XxXxX|.].rXxX",
"gXfX9X*X-XfXxX6X*X9XfXvXl.e.A.A.E.U.U.I.B.9.9.e.!.vXm.c k.pX X<X/././.Q.!.E.E.Q.!.2X*X6XgXaX:X=X9XfX",
"}.|.tXxXfXc.1.3XfX9Xn.5.R E ,.S.U.U.A.9.$.B.p.% k xXx 8 1.4X#X#X!.+XQ.R.!.Z.~.F.q.7XxXrX}.*XpXxX:X].",
",X}.rXxXwXR c.3X>X*X1.Y E W E e.W.E.U.W.e.|.f.f 1.<.2X.X1X#X$X+X X+XE.W.U.U.~.R 7 6X-X}.v.g.D.xX:X}.",
"fXkX7X=Xc.}.hXuX6X:.{.,.R W T e.W.U.E.C.j.Q.{.qX6Xp.wX9X*XXX1X X X+X!.!.U.~.E.$ c yXb.s.W Q {..XtXkX",
"xXxX:X].u.9X0XiXeXy.}.v.t E E C.E.W.C.r.T.R.@Xn.D.}.m.`.2X2X<X X~./.!.!.W.~.f.>.a.A.,.B.N N.;X].rXxX",
"9X-XtX:X:X3X&XuXeXuXuXm.z Y e.A.A.E.0.E.F.Q.a.s.m.m.n.b.a.%X2XQ.!.!.!.Q.E.R.k.(.6.D C.&.M 2XsXrX9X2X",
"}.].aXfXqX0X*X0XuXeX3XoX2Xd.E.A.U.S.r.Z.D.h.0.Y.].].}.}.g.g.{.>XXXXX X!.~.U.t.I.C B ).N 6.*XkXxX:X`.",
"6X6XtXeX[.;X@X3X3X=Xb.c.vXF.A.U.S.r.Q.s.v.0.w.R.>X.X=X{.k.v.g.F.gX#XQ.T.+X6.9.P.b V.&.N #X7XrXrX9X:X",
"xXxX:X].].[.rXqX3Xm.M.i.9XT.A.E.e.U.R.*Xc.0.q.s.n.F.b.f.l.Z.l.v.].Y.XXG.~.D _.U B ).B 6.xXkX}.].rXxX",
"kXkX9X}.:XgX9X*X].i.k.i.:X;XR.d.A.E.w.q.D.0.q.f.q.d.g.k.Z.S.l.g.g.U. X!.C.Q ).m o.H.b G.xXaX*X*XrXkX",
"}.}.rXxXgX}.,XrXxXoXOX:X;XfXY.0.~.C.r.0.3.r.3.w.q.5.5.g.l.D.l.d.h.l.^./.6.*.V.b P.&.C 1X}.*XkXxX:X}.",
"}.].rXxXgX}.}.rXxX0XeXiX3X3XY.v.Q.Z.0.e.3.g.*XqXe.d , F.h.w.S.g.w.d.E.<XQ B.&.m _.I 6.yX|.,XkXxX:X|.",
"gXgX6X>X:XaXgX9XoXM.7XiX;Xc.c.J.f.v.n.v.D.9X2X-XY 1 9 |.:Xh.,.d.g.g.Z.~.Q (.U B ).N 6.eXgXaX-X>X9XfX",
"xXxX9X`.,XxXkXc.1.m.uXdXdX=Xn.uX{.5.5.J.'.J.k.J.,.J 1 9./.L.{ #.g.g.l.^.I _.I I _.N N.9XxXxX}.`.rXxX",
"9X9X9XtX9XrXf.u.}.eXeXoX3XhX-X;XoXb.-X7X=X,X@X'.*XX.H { =.{ _ _ #.d.g.G.V H.V U P.m G.wX9X9XtXrX9X9X",
"}.].rXxXkXp.u.*X3XuX<.<.i.;XuX;X[.-X-X}.n.m.x.`.h.u , _ _ ~ / _ _ 7.r.N.- 3.1 D V.N yXsX].}.xXxX:X].",
"-X*X9XgXsXv.].m.oXm.M.dXuXoXuX3X=X4XhXaXiX7X1.q...G ) / _ ! / ( ! ( q.0.- O.1 M +.N 2XrX*X:XaXgX6X-X",
"xXxX9X].-X*X%X%Xe 0 v l w ; i.hX3XM.} q.i.m.4XiX[.f } 2 ! ^ ! ! ~ ) ) w.v.c.3.....n F.3XxXkX.X].tXxX",
"xXxX9X}.>X>Xk.R . X 0 + O . @ uX3X@X| H r , g 1.9Xv e [.7.s < s d s < ` OX}.tXjXXXW v.9XxXfX*X}.rXxX",
"*X,X9XxXgXg.i  .p w 7 O & X   2.jX3XU., * f f k.c , q q.@XoXY i y u > + 8.vX'.%X6X2XaXrX,X=XfXxX6X>X",
"}.].rXxXxXd.A W.c.. X ; % o X $ 4X9X9X1.r g q y g $.f  .g M.h.q k g , O l rXx.].].2XxXrX`.}.xXxX:X].",
"rXaX9X:XtX}.u 1X<.0 <.a.n.,X;X,X'.=X}.$XM.z 7 ..$.$.g 8.} k.a.z u R 5.z :.;X1.u.*X9X:X9XaXrX9X:X9XaX",
"xXxX2X`.;XwX>.9Xy.y.;X3X3X` p l p w 1.1.2.<.> q s g 7 5...n.u.z t p.<.2.x.].:.1.}.*Xn.9XxXxX}.].rXxX",
"rXrX9X9X9X:X6X-X6 % y.hXxXv % 8 # 8 5 5 # # $ 9 7 @ # >.0 c 2. .Y a.>.T K X.m.1.1.:X6X9XrXrX9X:X9XrX",
"}.].tXxXgX].`.w @ 6 :.hXhX1.% 8 5 5 # # 3 3 8 : 9 : w :.$ 6 6 w l >.2...G 1  .c.>.tXxX9X].,XxXxX-X].",
"*X*X9XfXaX,X;Xl 3 : y iXhXb.9 K K f r r q , : : # @ v c # 7 7 8 $ $ e R i d K x ;.aXkX9X,X-XgXfX6X*X",
"xXxX9X}.=XkXxXc.> g K @XhX$Xg o.] H ] L L | ] J F r c f > 6 # # # # % c 6 * z t q.:X].6XxXkX,X}.tXxX",
"xXxX6X|.>XxXxX=XT U L C.hXiXx ] ] P F K H H J J J J H K K F d r , ; 6 c @ @ w l xX*X|.9XxXxX,X|.rXxX",
"-X*XtXfXsX>X*XpXA.G L O.uXjX1.K ] F J J J | ' J J J H G P G G G H d g g , , w ;.6XrXkXtX*X:XgXfX9X*X",
"|.'.tXxXfX].].gXxX..L L #XxX}.s H K J H F h ' ' J J H H F F H F S Z Z Z A A t h.}.kXxXrX`.}.xXxX:X].",
"tXtX9X9X9XtXtX9X0XY.{.e.3.iX0X>.j.4XF K 3.U.X.h J G F F F Z Z Z F Z Z Z A 1 ..yX9X9X9X9XtXtX9X9X9XrX",
"xXxX6X].*XxXxX*Xn.{.xXxXqX9X:XxXxXxX9X5XxXxXr.' } | T F h J T F g Z A S d x }.jXxX*X].:XxXxX}.].rXxX",
"aXaX9X-X:XaXgX=X,X:XtXrXhXgXfXkXkXgXxXxXvXhXgX3X{.;X$Xb.v.}.*X].{.].n.n.n.}.'.*XpX6X*X9XgXrX:X=XtXrX",
"}.|.rXxXgX}.|.aXxX9X`.].9X9X;X].}.tXrX@X].,X9XrX,Xn.;XjXfX%X].wXxXvX}.}.gXxXrX}.}.vXxXrX].}.xXxX:X}.",
"*X}.rXxXgX}.}.gXxXrX}.,XxXxXrX|.*XxXxX7X}.-XxXxX-X}.6XxXxX*X}.tXxXfX}.}.rXxXgX}.}.gXxXrX|.*XxXxX:X}."
};
