/* XPM */
static char *_1a458753d28476bf3be42f8d42c3976EJRv2ENQ79ldAoIy[] = {
/* columns rows colors chars-per-pixel */
"50 50 216 2 ",
"   c #010103",
".  c #0B0906",
"X  c #0A0A0A",
"o  c #130D0A",
"O  c #151209",
"+  c #16191A",
"@  c #26140A",
"#  c #251C16",
"$  c #34280F",
"%  c #2B241B",
"&  c #3A2B17",
"*  c #262829",
"=  c #352D28",
"-  c #39332F",
";  c #363535",
":  c #481A15",
">  c #551B15",
",  c #6A1E17",
"<  c #6A1F19",
"1  c #4C3916",
"2  c #6C221A",
"3  c #69251B",
"4  c #75231C",
"5  c #7C241D",
"6  c #732D1D",
"7  c #7C281D",
"8  c #79361D",
"9  c #4B382A",
"0  c #6B2D21",
"q  c #633D2D",
"w  c #7B3827",
"e  c #69393A",
"r  c #7D3C35",
"t  c #55421B",
"y  c #694D1B",
"u  c #7C521F",
"i  c #5B4636",
"p  c #77572E",
"a  c #624533",
"s  c #634836",
"d  c #674C3A",
"f  c #6B4D39",
"g  c #74543E",
"h  c #3D3E43",
"j  c #663A43",
"k  c #464849",
"l  c #534E52",
"z  c #5C595C",
"x  c #65414E",
"c  c #6B5645",
"v  c #785842",
"b  c #645958",
"n  c #494D60",
"m  c #585B73",
"M  c #62516A",
"N  c #6A6A69",
"B  c #767571",
"V  c #85261F",
"C  c #88271F",
"Z  c #86311F",
"A  c #892720",
"S  c #852B23",
"D  c #8A2C21",
"F  c #8C3421",
"G  c #873B24",
"H  c #943B25",
"J  c #92382D",
"K  c #913D32",
"L  c #81421F",
"P  c #8C4925",
"I  c #964725",
"U  c #8C5522",
"Y  c #955825",
"T  c #964D3A",
"R  c #A14E2B",
"E  c #AB5F2F",
"W  c #876322",
"Q  c #966625",
"!  c #9B6B25",
"~  c #9E7326",
"^  c #9E7429",
"/  c #926D33",
"(  c #A36D2B",
")  c #A17527",
"_  c #A27629",
"`  c #A8772E",
"'  c #A4792B",
"]  c #AA7E2C",
"[  c #B37033",
"{  c #845D45",
"}  c #985E46",
"|  c #8A5753",
" . c #8B654A",
".. c #92694E",
"X. c #9E684D",
"o. c #956D52",
"O. c #8C7156",
"+. c #9C7254",
"@. c #A27556",
"#. c #A6785A",
"$. c #AB7C5B",
"%. c #91796E",
"&. c #A57364",
"*. c #AD812E",
"=. c #B0842F",
"-. c #A78039",
";. c #B38531",
":. c #B68933",
">. c #BA8C35",
",. c #B1853F",
"<. c #BF9037",
"1. c #BD9038",
"2. c #C18E39",
"3. c #C4953A",
"4. c #CA973C",
"5. c #CC9B3D",
"6. c #D09F3F",
"7. c #D5A33F",
"8. c #AB8748",
"9. c #B88E49",
"0. c #AE8C51",
"q. c #B59457",
"w. c #96857A",
"e. c #AE8969",
"r. c #B28362",
"t. c #B68966",
"y. c #BB8A67",
"u. c #B99768",
"i. c #AC8E71",
"p. c #B48E74",
"a. c #B69377",
"s. c #BFA16A",
"d. c #BBA274",
"f. c #C69A44",
"g. c #D29F40",
"h. c #D5A442",
"j. c #D3A74F",
"k. c #D7A94D",
"l. c #D8AE5B",
"z. c #C38D68",
"x. c #CA926B",
"c. c #C69974",
"v. c #CAA579",
"b. c #D5A179",
"n. c #5B668B",
"m. c #5D6A94",
"M. c #5E6F9C",
"N. c #5E719F",
"B. c #606D95",
"V. c #687195",
"C. c #5F72A2",
"Z. c #6279AA",
"A. c #888888",
"S. c #989898",
"D. c #AE968F",
"F. c #B9A594",
"G. c #8D96AB",
"H. c #A4A4A4",
"J. c #ADADAC",
"K. c #B3ABA6",
"L. c #B3B1AD",
"P. c #B4B7B9",
"I. c #C5A986",
"U. c #D7AB83",
"Y. c #DBAB83",
"T. c #C9B38C",
"R. c #D9B887",
"E. c #C8B595",
"W. c #CFB099",
"Q. c #CAB99B",
"!. c #E3B68C",
"~. c #E6B88E",
"^. c #E8BA8F",
"/. c #CBB9A5",
"(. c #CFB5AA",
"). c #C5BCB6",
"_. c #DDC595",
"`. c #CFC0A4",
"'. c #D1C4AD",
"]. c #C7C4BC",
"[. c #D4C9B6",
"{. c #D6C8B6",
"}. c #D6CCBA",
"|. c #DED2BC",
" X c #E0CCA3",
".X c #E2D6BE",
"XX c #BFC3CE",
"oX c #C5C5C5",
"OX c #C6C9C2",
"+X c #C9C8C5",
"@X c #C9CACA",
"#X c #D5CCC4",
"$X c #D7CDC7",
"%X c #DBD3C9",
"&X c #CBCED6",
"*X c #D4D5D3",
"=X c #DCD6D4",
"-X c #DCD8D3",
";X c #D9D9D9",
":X c #E3D9C5",
">X c #E2D6CC",
",X c #E2DCD5",
"<X c #E1DEDB",
"1X c #E4E2DE",
"2X c #F6E4D3",
"3X c #DFE0E1",
"4X c #E6E6E5",
"5X c #E6E6E6",
"6X c #EAE9E7",
"7X c #E7E7E8",
"8X c #E7E8E9",
"9X c #E7E8EA",
"0X c #E9EAEA",
"qX c #F0ECE9",
"wX c #F4F4F4",
"eX c #FDFDFD",
/* pixels */
"5X5X5X5X5X5X5X5X4X4X4X7X4X4X5X4X4X1X:X|..X.X|.[.[.|..X|.}.}.1X8X5X5X5X5X5X5X5X5X5X5X5X5X5X5X5X5X5X5X",
"5X5X5X5X5X5X5X5X4X4X4X4X5X7X8X6X7X:Xl.k.k.k.f.-.-.h.k.9.*.0.1X8X5X5X5X5X5X5X5X5X5X5X5X5X5X5X5X5X5X5X",
"5X5X5X5X5X5X5X5X4X4X5X5X4X|.|.[.'._.5.3.7.h.5.*.*.5.h.1.*.,.`.'.,X7X4X4X5X5X5X5X5X5X5X5X5X5X5X5X5X5X",
"5X5X5X5X5X5X5X5X4X4X4X3X<Xl.h.<.^ ^ ^ ^ <.h.h.7.h.h.h.h.7.5.*.~ (.5X5X4X5X5X5X5X5X5X5X5X5X5X5X5X5X5X",
"5X5X5X5X5X5X5X5X8X8X%X`.E.j.h.3.*.;.:.:.5.h.h.h.7.3.3.4.h.6.*.~ e.F.(.3X4X5X5X5X5X5X5X4X4X4X5X5X5X5X",
"5X5X5X5X5X5X5X5X0X0X`.~ ' 5.h.h.h.h.h.h.h.h.h.h.5.] ~ >.h.6.-.~ 8 , | 3X0X8X8X7X7X5X5X5X7X4X5X5X5X5X",
"5X5X5X5X5X5X5X5X`.v.c.>.>.>.>.5.h.h.h.h.h.h.7.1.>.>.>.>.>.*.U U 8 , f e.D.F.I.T._._.T.I.}.5X5X5X5X5X",
"5X5X5X5X5X5X5X1X0.~ =.h.6.] ) >.h.h.h.h.h.h.1.^ ' 4.7.>.) ! Z V 4 4 , , , U ~ ;.h.5._ ) E.7X5X5X5X5X",
"5X5X5X5X5X4X8X1Xq.~ =.h.h.3.>.5.h.h.h.h.h.h.6.3.2.7.h.[ I I A C V 5 Z U U ;.<.4.h.7.<.<.q.d.T.1X5X5X",
"5X5X5X5X5X5X5X<Xq.~ =.h.h.h.h.h.h.h.h.h.h.h.h.h.7.7.g.[ A A A C C D G ) ) 4.h.h.h.h.h.7.>.~ 0.,X5X5X",
"5X5X5X5X8X%Xs.q.9.3.5.h.h.h.h.h.h.h.h.h.h.h.h.h.7.( R G 4 4 4 4 U Y ^ 1.3.7.h.h.h.7.:.=.v.`.[.5X5X5X",
"5X5X5X5X8X[.^ ~ 5.h.h.h.h.h.h.h.h.h.h.h.h.g.g.g.4.H A V 2 3 2 < U ^ *.h.h.h.h.h.h.4.^ Q E.0X5X5X5X5X",
"5X5X5X5X5X[.^ ^ 5.7.3.*.=.g.h.h.h.g.h.h.>.] ( I I D V 5 2 6 U Q ;.5.5.h.7.:.*.*.*.^ $ # A.6X5X5X5X5X",
"5X5X5X5X5X}.,.-.3.7.>.^ ' 4.g.g.g.g.g.g.` ! Y A C C C 4 6 8 ^ _ 5.h.7.7.5.~ ~ ~ W W # + A.0X5X5X5X5X",
"5X5X5X5X5X1X%X#Xq.' :.h.5.*.' Y H H F H F F F A C 4 2 P Q _ 4.5.7.7.3.*.*.~ *.y O % H.XX;X5X5X5X5X5X",
"5X5X5X5X5X5X8X5X0.Q ' 3.1.( ! I A A A A V V D H H S w U ' ] 5.5.5.5.>.W W W W t   + OX6X5X5X5X5X5X5X",
"5X5X5X5X5X5X5X3X| 2 6 6 6 S D D A A A A 4 2 P 6.4.6.5.5.h.5.] ' ` ' u . . . . .   + oX5X5X5X5X5X5X5X",
"5X5X5X5X4X1X}.[. .6 6 2 2 C A A V A F F P w Y h.6.4.5.5.5.>.W u ^ 8./ % # .   + ; k @X5X5X5X5X5X5X5X",
"5X5X5X5X8X[.-.-.) ! U < 2 V A 4 < 6 ! ( 2.h.7.h.g.] _ ) ) p O . O.~.c.X...#   z 3X3X5X0X5X5X5X5X5X5X",
"5X5X5X8X8X[.^ ~ *.;.( P P R R U P Y ] ;.>.3.3.3.3.` ) 8.c.0.o   O.~.U.y.t.b k N H.J.;X4X5X5X5X5X5X5X",
"5X5X5X5X8X[.^ ~ 3.7.h.7.7.h.h.h.h.h.h.7.=.~ ) _ ) ~ ~ T.eX-X+   O.~.!.!.~.>X0XA.  + oX0X5X5X5X5X5X5X",
"5X5X5X.X XR.1.:.<.2.3.h.h.7.h.5.1.1.2.2.] _ W y y 8.9.R.2X|.c i i.!.!.U.U.>X0XJ.z N *X8X5X5X5X5X5X5X",
"5X8X5XR.7.7.h.7.*.^ :.h.7.7.7.:._ ~ ^ ' _ _ y   X a.^.!.!.!.~.~.!.!.Y.x.c.>X7X5X0X8X5X4X5X5X5X5X5X5X",
"4X8X6Xv.:.>.>.>.>.>.3.h.7.<.>.=.) Q 1 1 1 1 t 9 i c.!.!.!.R.~.~.!.!.U.o.+.}.5X5X4X4X4X4X5X5X5X5X5X5X",
"4X7X5Xd.~ ~ ~ ~ 5.k.h.h.7.' ) ) ) W .       % @.$.b.!.!.!.!.!.!.!.~.c.a d ).0X5X5X5X5X5X5X5X5X5X5X5X",
"4X5X7X[.Q.Q.Q.E.v 1 t t t & & & 1 $     9 s  .c.v.Y.!.Y.b.b.b.b.x.y.a.K.K.*X4X5X5X5X5X5X5X5X5X5X5X5X",
"4X4X4X8X6X7X8X3Xh                       f @.y.!.^.!.!.U.x.x.x.x.r.@.a.5X6X4X4X0X5X5X5X5X5X4X5X5X5X5X",
"4X4X4X4X5X4X4X5XL.H.N             . : : a g  .t.t.t.t.+.{ { &.0.(.>X,X7X5X5X4X4X5X5X5X5X5X5X5X5X5X5X",
"5X5X5X5X5X4X4X7X8X6XS.X X .       O 2 2 q s g X.+.@.$...d v +.&.%XeXeX7X4X5X5X5X5X5X5X5X5X5X5X5X5X5X",
"5X5X5X5X7X7X7X4X5X7X*XP.H.+   @ > > q q { .. .g g c.U.W.+X+X$X$XqXeXwX7X4X5X5X5X5X5X4X5X5X5X5X5X5X5X",
"5X5X5X5X5X5X4X4X5X4X7X0X*X; + : 4 0 f f ..@. .a f c.Y.(.=X=X8X0XwXeXwX5X4X4X5X5X5X5X5X5X5X5X5X5X5X5X",
"5X5X5X5X5X5X5X5X5X5X5X8X3X&XoX%., w r.z.$.@.} S S J K K r | =X8XwXeXeX7X4X4X5X5X5X5X5X5X5X4X5X5X5X5X",
"5X5X5X5X5X5X5X5X5X5X4X4X5X-X-X&.3 w z.z.$.X.T D C A A 5 , r ).%XqXeXwX0X0X8X5X5X5X5X5X5X5X5X5X5X5X5X",
"5X5X5X5X5X5X5X5X5X5X4X6X<Xp.e.v a f @.@.T C D C A A A A C F ` -.`.0XwXeXeX0X5X5X5X5X5X5X5X5X5X5X5X5X",
"5X5X5X5X5X5X5X5X5X5X;X#X[.p.r.o.g { ....G V V C A D A A C F U Y Q.0X0XeXeXwX0X8X5X5X5X5X5X5X5X5X5X5X",
"5X5X5X5X5X5X5X5X5X5X).#.&.Y.R.b.z.r.f a 0 4 4 C A A A A D V 2 2 F.0X0XeXeXeXeXwX5X5X5X5X5X5X5X5X5X5X",
"5X5X5X5X5X5X5X5X5X5X(.@.$.Y.^.U.b.y.f a j j e S V 5 5 S A A 8 u F.0X8XwXwXeXeXwX5X5X5X5X5X5X5X5X5X5X",
"5X5X5X5X5X5X5X5X8X8X(.@.$.Y.~.^.~.b.f i m m.M 2 , 2 2 4 V Z ! ~ /.7X5X5X8XeXeXwX5X5X5X5X5X5X5X5X5X5X",
"5X5X5X5X5X5X5X5X5X8XL. .o.y.c.e.%.%.b M n.N.n.j x j x | &.&.e.u.{.5X5X5X5XwXwXwXwX0X5X5X5X5X5X5X5X5X",
"5X5X5X5X5X5X5X5X5X8XK.a f o.@.c = h n.B.C.Z.C.m.B.m.m.G.oXoXOXOX;X5X5X5X5X5X4XwXeXeX0X5X5X5X5X5X5X5X",
"5X5X5X5X5X5X5X5X5X0XS.% & v { d 9 k n n n.B.N.N.C.G.G.P.;X*X+XoX;X5X4X4X5X5X8X0XwXwX5X5X5X5X5X5X5X5X",
"5X5X5X5X5X5X5X5X5X0XA.  X 9 a a a i - - m m.M.Z.Z.P.OX*X4X4X+XoX;X5X4X5X5X5X5X5X5X5X5X5X5X5X5X5X5X5X",
"5X5X5X5X5X5X5X5X5X5XoXS.A.= # 9 s c S.H.V.m.M.N.Z.P.OXOX*X].B N D.!.I.A.w.$X5X5X5X5X5X5X5X5X5X5X5X5X",
"5X5X5X5X5X5X5X5X5X5X5X0X@X*   = d O.;X8XG.B.B.B.V.P.OXOX].J.9 - O.x.$.d d ).0X5X5X5X5X5X5X5X5X5X5X5X",
"5X5X5X5X5X5X5X5X5X5X5X5X;XJ.H.L.P.].4X4X&XXXXXXXXXD.e.a.I.I.p.p.c = l K.).;X7X5X5X5X5X5X5X5X5X5X5X5X",
"5X5X5X5X5X5X5X5X5X5X5X5X0X0X0X0X9X8X4X4X4X8X4X8X1Xa.0.r.z.z.U.Y.i X k <X6X5X5X5X5X5X5X5X5X5X5X5X5X5X",
"4X4X5X4X5X5X5X5X5X5X5X5X5X5X8X8X5X5X5X4X4X4X4X4X8X*X$X%.# # = # %.P.oX4X5X5X5X5X5X5X5X5X5X5X5X5X5X5X",
"5X4X4X4X5X5X5X5X5X5X5X5X5X5X5X5X5X5X5X4X7X4X4X7X7X9X9XA.+ + + + G.6X0X4X5X5X5X5X5X5X5X5X5X5X5X5X5X5X",
"8X5X5X5X5X4X8X5X4X5X5X5X5X8X4X5X5X5X5X5X5X5X5X8X5X5X5X;X@X@X@X@X;X0X6X7X6X7X4X4X7X4X4X7X4X7X4X5X5X7X",
";X;X;X;X;X;X;X;X;X;X;X;X;X;X;X;X;X;X;X;X;X;X;X;X;X;X;X;X;X;X3X;X;X;X;X;X;X;X;X;X;X;X;X;X;X;X;X;X;X;X"
};
