/* XPM */
static char *_067ae0f653f4eecf99a82f87f63aba6SC67xDTR9jcQgHEM[] = {
/* columns rows colors chars-per-pixel */
"50 50 219 2 ",
"   c #020203",
".  c #080607",
"X  c #0B0906",
"o  c #0C0B0A",
"O  c #160C09",
"+  c #16120E",
"@  c #1A140B",
"#  c #191715",
"$  c #241A0C",
"%  c #241D19",
"&  c #371F18",
"*  c #2D220D",
"=  c #32260E",
"-  c #29211A",
";  c #362616",
":  c #1F2020",
">  c #252626",
",  c #382C24",
"<  c #3C3026",
"1  c #383837",
"2  c #511A14",
"3  c #631E18",
"4  c #4A261D",
"5  c #473615",
"6  c #6C231B",
"7  c #6C291F",
"8  c #74231B",
"9  c #78241A",
"0  c #75291F",
"q  c #7A321D",
"w  c #49392C",
"e  c #742C23",
"r  c #673729",
"t  c #7A3628",
"y  c #693433",
"u  c #7B3939",
"i  c #5F4B1F",
"p  c #674B1A",
"a  c #7A591F",
"s  c #5C4535",
"d  c #655021",
"f  c #765A25",
"g  c #684A37",
"h  c #624C3B",
"j  c #6C513B",
"k  c #72533D",
"l  c #564F48",
"z  c #5E5E5F",
"x  c #685241",
"c  c #7D5C44",
"v  c #795C49",
"b  c #7E5459",
"n  c #7C6454",
"m  c #7E695C",
"M  c #696967",
"N  c #756A61",
"B  c #747575",
"V  c #85261F",
"C  c #8A261E",
"Z  c #892720",
"A  c #852922",
"S  c #8B2D21",
"D  c #863825",
"F  c #943C25",
"G  c #81373C",
"H  c #844D27",
"J  c #984727",
"K  c #975829",
"L  c #874639",
"P  c #A4522C",
"I  c #A5592C",
"U  c #86692B",
"Y  c #896A2A",
"T  c #9A6425",
"R  c #996C28",
"E  c #9D7225",
"W  c #9E7629",
"Q  c #9D7530",
"!  c #A6792A",
"~  c #AF6A30",
"^  c #A57B34",
"/  c #B77C35",
"(  c #835D45",
")  c #925D44",
"_  c #82644C",
"`  c #8A6449",
"'  c #976A4D",
"]  c #8E7746",
"[  c #866C56",
"{  c #8D7258",
"}  c #9D7253",
"|  c #99775B",
" . c #A27556",
".. c #A5795B",
"X. c #AA7C5B",
"o. c #8B7769",
"O. c #9D7E61",
"+. c #A67C60",
"@. c #AC812E",
"#. c #A9833A",
"$. c #B38631",
"%. c #B58833",
"&. c #BB8D35",
"*. c #B78A38",
"=. c #C48D3A",
"-. c #C39338",
";. c #CD973F",
":. c #CB9B3D",
">. c #D09B3F",
",. c #D3A23F",
"<. c #AC8846",
"1. c #B78D47",
"2. c #B1855A",
"3. c #BB9958",
"4. c #81837D",
"5. c #988476",
"6. c #A48566",
"7. c #AB8264",
"8. c #AB896A",
"9. c #B58463",
"0. c #BA8562",
"q. c #BB8C68",
"w. c #BA9766",
"e. c #A1827A",
"r. c #B69272",
"t. c #BCA477",
"y. c #C09644",
"u. c #D09D40",
"i. c #D4A341",
"p. c #D5A64A",
"a. c #D6AC5A",
"s. c #C18C67",
"d. c #C48E69",
"f. c #C6906A",
"g. c #CC946D",
"h. c #C99974",
"j. c #D39E76",
"k. c #D09F79",
"l. c #D0AF6F",
"z. c #CCA27D",
"x. c #D6A57C",
"c. c #D9A67E",
"v. c #5F5F80",
"b. c #5C6A95",
"n. c #5E6F9C",
"m. c #5E719F",
"M. c #656B95",
"N. c #686D96",
"B. c #6F7490",
"V. c #687499",
"C. c #5E74A6",
"Z. c #5F79AE",
"A. c #6076A9",
"S. c #6078AC",
"D. c #7984A3",
"F. c #888887",
"G. c #99918B",
"H. c #969796",
"J. c #A89689",
"K. c #B59884",
"L. c #A79994",
"P. c #ABA199",
"I. c #929AAC",
"U. c #8E9CB5",
"Y. c #95A2BA",
"T. c #A8A8A9",
"R. c #B7A8A2",
"E. c #BBB2AC",
"W. c #B2AEB3",
"Q. c #B7B6B5",
"!. c #BCBDBC",
"~. c #C1A984",
"^. c #D5AB83",
"/. c #DBAE85",
"(. c #DDB189",
"). c #DCB488",
"_. c #CDB090",
"`. c #CAB79A",
"'. c #E2B58B",
"]. c #E6B98E",
"[. c #E8BA8F",
"{. c #CCBDA2",
"}. c #C7B5A9",
"|. c #D9BCA3",
" X c #C8BBB7",
".X c #E0BDA4",
"XX c #DBC292",
"oX c #D8C7A8",
"OX c #D6CABA",
"+X c #E4CCAC",
"@X c #E5D3B8",
"#X c #9FACC7",
"$X c #A4ADC3",
"%X c #A7B2CB",
"&X c #B6BAC9",
"*X c #ABB8D3",
"=X c #C0BCC4",
"-X c #BFC1C7",
";X c #C8C8C6",
":X c #D5CCC5",
">X c #D8D3C9",
",X c #CFD2DA",
"<X c #D8D6D5",
"1X c #DCDCDB",
"2X c #E6D9C8",
"3X c #F1D7C0",
"4X c #E4DDD0",
"5X c #E1DEDA",
"6X c #E3E1DE",
"7X c #ECE5DB",
"8X c #DBDCE1",
"9X c #E6E6E6",
"0X c #E8E8E6",
"qX c #E7E7E9",
"wX c #E7E8E9",
"eX c #EAEAEA",
"rX c #F5F0ED",
"tX c #F4F4F4",
"yX c #FDFDFD",
/* pixels */
"9X9X9X9X9X9X9X9X9X9X9X9X9X9X9X9X9X9X9X9XqXqXqXqXqXqXeXeXwXeXeXwXeXwX9XwX9X9X9X9X9X9X9X9X9X9X9X9X9X9X",
"9X9X9X9X9X9X9X9X9X9X9X9X9X9X9X9X9X9XOXoXoXoXoXoX{.oX+X+X+XoXoXoXOX9X9X9X9X9X9X9X9X9X9X9X9XwX9X9X9X9X",
"9X9X9X9X9X9X9X9X9X9X9X9X9X9X9X9X0X0Xt.^ *.p.p.$.Q *.p.p.p.p.#.W ~.9X9X9X9X9X9X9X9X9X9X9X9X9X9X9X9X9X",
"9X9X9X9X9X9X9X9X9X9X9X9X9X9XwX6XXXK.3.%.-.,.,.-.&.:.p.i.i.,.&.%.3.~.`.6XwX9X9X9X9X9X9X9X9X9X9X9X9X9X",
"9X9XqX9X9X9X9X9X9X9X9X9X9X9X6XOX<.W &.i.>.u.>.>.u.u.u.u.,.i.i.i.&.! 2.>X6X9X9X9X9X9X9X9X9X9X9X9X9X9X",
"9X9X9X9X9X9X9X9X9X9X9X9X9XOXt.w.y.&.&.$.~ I P K P P P I K I ;.i.:.-.y.3.t.OX9X9X9X9X9X9X9X9X9X9X9X9X",
"9X9X9X9X9X9X9X9X9X9X9X9X9X`.R E -.u.^ R K S S S S S S S C F / u.;.;.=.E Q {.eXeX9X9X9X9X9X9X9X9X9X9X",
"9X9X9X9X9X9X9X9X9XwXwX9XeXR.t q J J F S J T T T T T T T T I J F F F F t D }.yXtXwXwX9X9X9X9X9X9X9X9X",
"9X9X9X9X9X9X9X9X8XOXOXOXOXK.H D 8 3 D J K ! @.@.@.@.@.W a a H J J J F 2 3 P.2X2XOXOX9XeXwX9X9X9X9X9X",
"9X9X9X9X9X9X9XwX>X3.#.#.#.*.u.^ ; O f :.u.,.,.i.i.:.,.^ $ $ W >.;.;.^ $ O f <.#.#.3.0XtXrX9X9X9X9X9X",
"9X9X9X9X9X9X>XoX~.*.@.W E R Y f @   i f U U U U U U U i X X p U U Y d X X p ! ! $.1.XXOX6XrXeXeX9X9X",
"9X9X9X9X9X6X_.#.#.:.,.$.E p X         . . . . . . . .       . . X X     X p E $.i.:.@.#.oXyXtXeX9X9X",
"9X9X9X6X{.t.3.&.&.&.$.a 5 *                                               * i a %.%.&.&.l.~.oX6X9X9X",
"9X9X9X6Xw.W &.i.:.W R =   X               o o                                 5 W @.:.i.%.! w.6X9X9X",
"9X9XqX5Xw.E $.i.*.i $ X                 , | { -                             X = E @.:.i.:.-.l.6X9X9X",
"9X9X9X6Xt.<.*.p.#.= @ X                 w /.z.,   O % % % % o                 = a E :.p.a.a.XX6X9X9X",
"9X9X9X9X>X@XXXp.-.Y f *                 w /.z.,   h r.r.r.6.,                 X @ 5 &.p.XX>X4X9X9X9X",
"9X9X9X9XwX0X@Xl.a.*.@.=             % 1 l 8.O.s < | ].^.r.6.s 1 %       . % < %   @ U #.oX9X9X9X9X9X",
"9X9X9X9XwX9X6X6X@Xa.,.i           X M Q.4.# - 6.^.(.].8.- : F.Q.M .     o { ^._ .   X # G.qX9X9X9X9X",
"9X9X9X9X9X9X9XwX;X] f j s s h s h h P.6XH.o # 8.[.'.[.6.o # H.6XB . + s x r.[.[ . + l M W.qX9X9X9X9X",
"9X9X9X9XqX9X9XwX!.> + { (././.^./.(.3XyXW.+ % 8.[.'.[.6.# : W.yXF.. , h.(.(.'.[ . > !.6X6XqX9X9X9X9X",
"9X9X9X9X9X9X9X9X>XH.F.E.2X|.h.h.(.].+X3X`.[ { z.].'.'.h.[ [ 5.G.5._ { q.r._ h N H.T.1XeXqXqX9X9X9X9X",
"9X9X9X9X9X9X9X9XqXqXwX6X<X}.} X.z.(.'.'.'.'.'.'.'.'.'.'.'./.{ g | (.x. .' < o M qXeXwX9XqX9XqX9X9X9X",
"9X9X9X9X9X9X9X9X9XqX6XP.o.n v c X.q.g.k.^.'.'.x.j.x.x.c.'.).q.2.9.q...c k k k n o.G.<XwX9X9X9X9X9X9X",
"9X9X9X9X9X9X9X9X6X<X>Xo.h g k k ( `  .2.s.h.j.g.s.d.f.g.x.k.d.0. .` ( j j ' X.' j n Q.<X1X9X9X9X9X9X",
"9X9X9X9X9X9X9XeX4XK.+.( y ( 0. ., # 2 t t t L } X.X.X.' D t t t 4 + ; ` } 9.d.d.0.9._ n E.qX9X9X9X9X",
"9X9X9X9X9X9X<XOX}.+. .` v } x.9.4 O 2 8 8 8 e L ) ) ) L 0 8 8 8 2 O & c ' 0.g.g.g.0.j g R.9X9X9X9X9X",
"9X9X9X9X9XeX}.6.+. . .0.q.j.'.h.D 3 9 C V V V 0 0 7 7 0 V C V V 8 3 6 g j X.g.g.g.0.j h R.qX9X9X9X9X",
"9X9X9X9XOX}._.q.q.2.X.0.0.9.8...G 9 V C Z Z A 8 6 H K J Z Z Z Z V 9 e r r ` } }  .O.J.L.:XqXeXtXtXtX",
"9X9X9X5XK.} r.'./.j.g.0.} ` h r A C Z Z Z C V 8 6 I i.*.S Z Z Z Z Z V 6 7 y h h g [ 5XyXeX9XeXyXyXyX",
"9X9X0X1X5.c +.].'./.x.| c s % & 0 Z Z Z C C V 8 6 t K J S Z Z Z V Z V 8 e e.}.E.P.E.9XrXeX9XtXyXyXyX",
"9X9X0X9Xo.x | ^././.^.| x w # % 8 C A Z V C V 8 6 7 0 0 Z Z Z Z S V V e G  XyXtXeXqXqXqX9X9XtXyXyXyX",
"9X9X9X9X;X XJ.( v _ _ L. XQ.W.L.g 9 V C C C Z 8 3 J =.~ S Z Z Z V 3 G }.=X5XrXrXtXyXtXyXtXyXyXyXyXtX",
"9X9X9X9XqXqXE.m n n [ Q.eX8X,X&Xb y t G G G G y y ' y.X.L G G G u y b  X,X8X9XrXyXtXyXyXyXyXyXyXtXeX",
"9X9X9X9X9X9X1X:X:X,X:X1XqX-XD.V.M.M.N.N.M.M.M.v.M B.D.V.N.M.N.M.M.M.M.A.D.;XqXqXwXwXeXeXtXyXtXeXeX9X",
"9X9X9X9X9XqXqXqXwXwXqXqX9X&XM.M.C.Z.Z.Z.S.S.A.m.C.C.C.A.Z.Z.Z.Z.Z.A.C.M.N.&X0XqXqX9XqXqXtXyXtXqX9X9X",
"9X9X9X9X9X9X9X9X9X9X9XeX9X&Xb.b.C.Z.Z.Z.S.S.Z.Z.Z.C.b.n.S.S.S.S.A.A.C.b.N.&XwXqX9X9X9X9X9X0X9X9X9X9X",
"9X9X9X9X9X9X9X9X9X9X0XeXtX8X%X$XY.U.#X*X*X*X%XY.U.A.b.V.U.Y.$X*X*X*X%XI.I.,XtXeX9X9X9X9X9X9X9X9X9X9X",
"9X9X9X9X9X9X9X9X9X9X9XtXyXyXyXtX<X;X9XtXtXtXtX,X XU.M.D.Q.;X9XyXyXyXrX;X;XeXyXtX9X9X9X9X9X9X9X9X9X9X",
"9X9X9X9X9X9X9X9X9X9X0XeXtXtXyXyXeX9XH.z z z M !.1X;X&XW.K.K.`..X.X@X+X_._.4XrXeX9X9X9X9X9X9X9X9XqX9X",
"9X9X9X9X9X9X9X9X9X9X9X9X9XrXyXyXyXyXB > # > 1 Q.0X0XeXOX7.X.d.g.^.'./.g.j.OX9X9X9X9X9X9X9X9X9X9X9X9X",
"9X9X9X9X9X9X9X9X9X9X9X9X9XrXyXyXyXyX8X;X-X!.;X1XqX0X0X:Xh.d.x.(.'.'.^.X.X. XqX9X9X9X9X9X9X9X9X9X9X9X",
"9XqX9X9X9X9X9X9X9X9X9X9X9XeXyXyXyXyXyXyXyXyXyXtXqX0XqX>Xg.q.q.r.h.^.^.r.K.:X0X9X9X9X9X9X9X9X9X9X9X9X",
"9X9X9X9X9X9X9X9X9X9X9X9X9XqXqXwXyXyXyXyXyXyXyXeX9X0XqXOX8.} w # y X.h.7XrXeX9X9X9X9X9X9X9XqX9X9X9X9X",
"9X9X9X9X9X9X9X9X9X9X9X9X9X9XqXeXtXtXyXtXyXtXtXqX9X9XqX Xv s @   - g o.5XyXqX0X9X9X9X9X9X9X9X9X9X9X9X",
"9X9X9X9X9X9X9X9X9X9X9X9X9X9X9X9X9X0X9X9X0XqXqX9X9X9XqXT.: o .   o o 1 ;XqX0X9X9X9X9X9X9X9X9X9X9X9X9X",
"9X9X9X9X9X9X9X9X9X9X9X9X9X9X9X9X9X9X9X9X0X9X9X9X9X9XqX;XB B B B B B H.<XqX9X9X9XqX9X9X9X9X9X9X9X9X9X",
"9X9X9X9X9X9X9X9X9X9X9X9X9X9X9X9X9X9X9X9X9X9X9X9X9X0XqXqX9X9X9X9X8X9X9XqX9X9X9X9X9X9X9X9X9X9X9X9X9X9X",
"9X9X9X9X9X9X9X9X9X9X9X9X9X9X9X9X9X9X9X9X9X9X9X9X9X9X9X9X9X9X9X9X9X9XqX9X9X9X9X9X9X9X9X9X9X9X9X9X9X9X",
"9X9X9X9X9X9X9X9X9X9X9X9X9X9XqX9X9X9X9X9X9X9X9X9X9X9X9X9X9X9X9X9X9X9X9X9X9X9X9X9X9X9X9X9X9X9X9X9X9X9X"
};
