/* XPM */
static char *_af1b10a86fa491ef29942e2226c8601jSpI1dI18M7rAroi[] = {
/* columns rows colors chars-per-pixel */
"50 50 215 2 ",
"   c None",
".  c #000002",
"X  c #090705",
"o  c #160C04",
"O  c #1C1107",
"+  c #231607",
"@  c #231815",
"#  c #352519",
"$  c #2E2016",
"%  c #363232",
"&  c #5E0012",
"*  c #7B0D00",
"=  c #63120E",
"-  c #771605",
";  c #660013",
":  c #6A0014",
">  c #780517",
",  c #731A13",
"<  c #781614",
"1  c #6D100F",
"2  c #5C3E05",
"3  c #792416",
"4  c #7C3114",
"5  c #722714",
"6  c #5D3E2D",
"7  c #533929",
"8  c #4F3629",
"9  c #753438",
"0  c #723230",
"q  c #5E4004",
"w  c #624304",
"e  c #6E4A03",
"r  c #674504",
"t  c #7C5407",
"y  c #7D5A10",
"u  c #734D0D",
"i  c #594131",
"p  c #63412E",
"a  c #6A442F",
"s  c #654532",
"d  c #694631",
"f  c #6B4A35",
"g  c #734C36",
"h  c #7B553A",
"j  c #3B3A44",
"k  c #713443",
"l  c #5C484F",
"z  c #795A46",
"x  c #7D4045",
"c  c #940002",
"v  c #8C0016",
"b  c #8E0018",
"n  c #900017",
"m  c #950219",
"M  c #940B16",
"N  c #8D1C17",
"B  c #881615",
"V  c #941C17",
"C  c #951C1A",
"Z  c #991B18",
"A  c #971418",
"S  c #8D0008",
"D  c #8A2316",
"F  c #95241B",
"G  c #98231A",
"H  c #992A1A",
"J  c #942817",
"K  c #813B12",
"L  c #863317",
"P  c #963716",
"I  c #972F00",
"U  c #932721",
"Y  c #8E3325",
"T  c #884C08",
"R  c #845B07",
"E  c #9C5B0F",
"W  c #985B07",
"Q  c #884610",
"!  c #9C4314",
"~  c #9E5510",
"^  c #805C11",
"/  c #A35D12",
"(  c #9D6B01",
")  c #996502",
"_  c #9D6312",
"`  c #A26E01",
"'  c #A36D0A",
"]  c #A2660A",
"[  c #A67204",
"{  c #AB7503",
"}  c #AC7905",
"|  c #AB7609",
" . c #AE790B",
".. c #A3710E",
"X. c #B27A04",
"o. c #B37D0D",
"O. c #B97F05",
"+. c #A56112",
"@. c #B37F11",
"#. c #BA7E1D",
"$. c #B5751C",
"%. c #AE711C",
"&. c #81423B",
"*. c #8A5B3E",
"=. c #81573E",
"-. c #9C4432",
";. c #A4552F",
":. c #8F6734",
">. c #A87626",
",. c #A6663A",
"<. c #C17D1E",
"1. c #855D42",
"2. c #9D4D4E",
"3. c #88674B",
"4. c #9C6B4C",
"5. c #996648",
"6. c #997054",
"7. c #A46D4D",
"8. c #A7684E",
"9. c #A6714E",
"0. c #AB704D",
"q. c #AB7452",
"w. c #A47553",
"e. c #B37A56",
"r. c #B27A57",
"t. c #B47242",
"y. c #C17E54",
"u. c #BB830C",
"i. c #BB8513",
"p. c #BE8815",
"a. c #B78116",
"s. c #BA8626",
"d. c #C28505",
"f. c #C28A16",
"g. c #C4811F",
"h. c #C58D1A",
"j. c #C88E1B",
"k. c #CB931B",
"l. c #C7901A",
"z. c #D0971D",
"x. c #D49A1F",
"c. c #D89E1F",
"v. c #CC8C20",
"b. c #CB9328",
"n. c #D69C20",
"m. c #D89E21",
"M. c #D39720",
"N. c #DDA323",
"B. c #E1A524",
"V. c #E5A925",
"C. c #E9AC26",
"Z. c #E8AC29",
"A. c #FFC12A",
"S. c #BB825D",
"D. c #B68B58",
"F. c #AF864F",
"G. c #B88863",
"H. c #B79979",
"J. c #CA855D",
"K. c #C4845D",
"L. c #DC905F",
"P. c #D58E64",
"I. c #D59167",
"U. c #D8976A",
"Y. c #CA9B71",
"T. c #DC9D70",
"R. c #D39F74",
"E. c #CB8E66",
"W. c #E49A6C",
"Q. c #D8A579",
"!. c #DDAA7D",
"~. c #D7A277",
"^. c #D7A167",
"/. c #E2AB7D",
"(. c #E9AA74",
"). c #EFAB77",
"_. c #3F5491",
"`. c #555E85",
"'. c #5A638E",
"]. c #5C6995",
"[. c #5C6C9B",
"{. c #586696",
"}. c #4E6295",
"|. c #6D789D",
" X c #5A75AC",
".X c #5676B0",
"XX c #516FA9",
"oX c #6676A7",
"OX c #7783A6",
"+X c #7388B4",
"@X c #BDAA9B",
"#X c #8B93A7",
"$X c #BAB3A8",
"%X c #B3B9B3",
"&X c #C7A899",
"*X c #E4AE80",
"=X c #EBB585",
"-X c #EEB988",
";X c #EAB587",
":X c #F1BB8A",
">X c #F0B887",
",X c #C6B9AC",
"<X c #FDC592",
"1X c #F9C08D",
"2X c #C4C6BD",
"3X c #E7C5AD",
"4X c #C6CAC2",
"5X c #CACEC5",
"6X c #C4C7C0",
"7X c #D1D5CC",
"8X c #D1D9D2",
"9X c #EDD8C7",
"0X c #DCE0D7",
"qX c #EAE8E8",
"wX c #FFFFFF",
/* pixels */
"                                                                                                    ",
"                                        B.N.B.N.[  .N.x.` [                                         ",
"                                        n.B.B.N.o.i.B.c.u. .                                        ",
"                                N.B. .` [ { N.N.m.N.B.N.N.M.{ {                                     ",
"                                N.C.i.o. .a.N.N.N.N.n.c.B.z.} '                                     ",
"                            [ } m.B.B.N.N.N.N.N.N.N.(  .Z.n.{ ( > 3                                 ",
"                            a.i.k.n.N.N.N.N.N.N.c.z.a.i.m.l.] E < ,                                 ",
"                        [ X.n.B. .` n.B.N.N.N.c.` | B.n.[ ] m N , < : T [ f.C.f.X.                  ",
"                        [ X.n.B.i.a.m.B.N.N.N.c.a.i.B.M.] ~ A V < L Q _ a.l.V.k.u.a.                ",
"                        ` { M.N.B.B.N.N.N.N.N.N.N.N.V.n.m A Z C m ! ( p.V.N.N.B.C.k.d.              ",
"                        i.f.n.N.N.N.N.N.N.N.N.N.N.N.v.#.B N B P ! +.i.k.B.N.N.x.c.p.'               ",
"                    [ O.x.V.B.B.N.N.N.N.N.B.B.B.C.n.n v 3 , : K ( i.B.B.B.B.V.h.X.                  ",
"                    { { M.B.z.k.m.N.N.N.N.N.k.k.j.<.F V , 4 Q _ i.j.N.n.k.l.k.@.R                   ",
"                    [ u.n.V.} ) c.V.B.B.V.B.} ( n n Z V : K ` i.V.B.V.k.( [ X.t .                   ",
"                      [ h.z.f.p.j.k.g.g.g.<./ ~ H H N L T _ p.l.B.n.j.p.[ ) R e .                   ",
"                        [ { N.C.X.( F n v n m m n v & 4 ` i.V.B.V.k.` [ o.R .                       ",
"                        W E %.#.+.~ P Z H H D P $.$.%.$.f.h.j.h.v.a.t t R w .                       ",
"                        ; > ; ; b m A C n m & 4 B.V.C.V.Z.n.[ ( ` t . . . . . .                     ",
"                      } E E 4 3 J H D D ~ / $.a.m.m.f.h.b.s.e :.W.D.=.d . O .                       ",
"                    [ u.[ [ 4 ; v n ; ; ( | V.C.V.m.' ) W T . 3.:XQ.0.1.. +                         ",
"                    {  .f.k.a.#.g.<.#.#.j.k.f.p.p.p.` D.9X$X. 3.:X/.~.G.  $ .                       ",
"                    ( { n.Z.V.B.B.V.V.V.V.N.' ` [ >.W H.wXqX. z :X>X<X:X    . .                     ",
"                  N.z.z.p.i.c.N.N.N.f.i.p.i.| ' r :.^.!.9X3XG.R.>X/.).T.                            ",
"                B.A.B.C.o.) x.N.B.B.{ ( [ [ } ... i =X1X(.).-X1X=X/.W.U.                            ",
"                i.f.i.i.j.k.N.N.f.i. .[ u w q u *.w.=X=X;X=X=X*X:X~.5.5.                            ",
"                [ O.` { c.C.B.B.o.` } ..O . . @ 7.D.=X-X=X-X;X=X:XY.8 6                             ",
"                        ^ ^ y y w 2 q 2 o # *.7.~.!.=X/.T.T.T.U.E.G.                                ",
"                        . . . . . . . . . # q.S.;X-X-X=XP.I.I.J.,.,.                                ",
"                            + + O O o O = , g =.S.S.S.D.*.4.,.&XwXqX                                ",
"                            X . . . . o < 3 6 f 7.9.9.5.8 z ;.&XwXwX                                ",
"                                . X = , 6 a 7.7.g 3.=X/.        wXwX                                ",
"                                X o , 3 p f q.0.7 1.1X1X        wXwX                                ",
"                                    : 3 E.E.q.0.U U ;.-., 9     wXwX                                ",
"                                    - L E.P.q.0.Z A c S < Y     wXwX                                ",
"                                7.q.d 6 q.q.Y U C C G G m P } F.    wXwX                            ",
"                                r.K.h h 7.8.U m C Z A Z M P u.>.    wXwX                            ",
"                            q.q.!.=XI.J.h a - - C Z V V V V < &.    wXwXwXwX                        ",
"                            9.e.*X;XT.I.h p 9 0 C C V V C F 0 Y     wXwXwXwX                        ",
"                            q.e.*X;X-X;Xh 6 ].'.- * - B c I { `         wXwX                        ",
"                            7.q.~.*X*XQ.z l [.].k k k k 2.4.D.F.        wX                          ",
"                            d f 9.q.7 j {.[. X X].].}.OX7X5X7X2X            wXwX                    ",
"                            6 p 5.4.7 % '.}. X X[.[.|.#X4X4X7X2X            wX                      ",
"                            . . p f s s % l }.[.XX+X7X4X    0X5X                                    ",
"                            . . 7 6 s s # j '.[.XX+X5X2X    2X$X                                    ",
"                                . . d f     [.oX{.#X4X4X7X%X. g ).J.f f                             ",
"                                . X p s     ].[.}.|.$X$X2X@X3.6.e.0.6                               ",
"                                                    q.y.P.W.<X~.. .                                 ",
"                                                    q.r.q.S.Y.G..                                   ",
"                                                        . . . .                                     ",
"                                                        O + @                                       "
};
