/* XPM */
static char *_267e213af094d89eab68ebb3e464c5detyy2vZHN4Qpjf4b[] = {
/* columns rows colors chars-per-pixel */
"50 50 233 2 ",
"   c None",
".  c #010101",
"X  c #00020B",
"o  c #090705",
"O  c #130B04",
"+  c #160C07",
"@  c #1B130D",
"#  c #1D1404",
"$  c #000012",
"%  c #171713",
"&  c #2C0305",
"*  c #231502",
"=  c #261A03",
"-  c #2A1D05",
";  c #23180F",
":  c #371A05",
">  c #231B13",
",  c #372404",
"<  c #35261A",
"1  c #2E2016",
"2  c #000022",
"3  c #30302E",
"4  c #182D33",
"5  c #420000",
"6  c #5B0600",
"7  c #431600",
"8  c #6C0001",
"9  c #660000",
"0  c #740102",
"q  c #790806",
"w  c #6D0217",
"e  c #761716",
"r  c #770F10",
"t  c #4B3406",
"y  c #553B0A",
"u  c #563C06",
"i  c #51300E",
"p  c #782619",
"a  c #653B11",
"s  c #493626",
"d  c #4A3627",
"f  c #573A28",
"g  c #4F2F21",
"h  c #7D3425",
"j  c #70382B",
"k  c #5C400A",
"l  c #6A4A0B",
"z  c #794C16",
"x  c #5D422D",
"c  c #49423C",
"v  c #5E4633",
"b  c #66462B",
"n  c #654431",
"m  c #6C4A34",
"M  c #644833",
"N  c #79543A",
"B  c #754D37",
"V  c #681741",
"C  c #74374D",
"Z  c #6F374C",
"A  c #4A5152",
"S  c #585856",
"D  c #66554A",
"F  c #7B5C42",
"G  c #7F5F4F",
"H  c #6D5B52",
"J  c #7C7B79",
"K  c #626A6F",
"L  c #960700",
"P  c #991800",
"I  c #8D0016",
"U  c #930418",
"Y  c #941917",
"T  c #951B1A",
"R  c #961718",
"E  c #8F1B17",
"W  c #96231A",
"Q  c #962419",
"!  c #8B3E16",
"~  c #9C3818",
"^  c #8C2510",
"/  c #A03E1A",
"(  c #8F1F20",
")  c #962820",
"_  c #8E3224",
"`  c #8A4407",
"'  c #8A4619",
"]  c #9A5000",
"[  c #A24219",
"{  c #A34A1A",
"}  c #AE5E1C",
"|  c #9C6901",
" . c #966302",
".. c #A46E04",
"X. c #A46A09",
"o. c #A66803",
"O. c #A57205",
"+. c #A97505",
"@. c #AA7509",
"#. c #AE790B",
"$. c #A87607",
"%. c #B47D0B",
"&. c #B37B05",
"*. c #AD7812",
"=. c #85593D",
"-. c #8A4C31",
";. c #A56129",
":. c #AB7B39",
">. c #AC6B3C",
",. c #8D374C",
"<. c #90384C",
"1. c #8B2E4C",
"2. c #8A5D42",
"3. c #864F43",
"4. c #9A694B",
"5. c #9A6446",
"6. c #8B6951",
"7. c #A36D4C",
"8. c #A86F4D",
"9. c #A8714F",
"0. c #AC7452",
"q. c #AA7554",
"w. c #B37A56",
"e. c #B57C59",
"r. c #B87D58",
"t. c #A97150",
"y. c #857975",
"u. c #9C7A79",
"i. c #BA810C",
"p. c #BA8414",
"a. c #B98529",
"s. c #D79900",
"d. c #C8931E",
"f. c #D39A1E",
"g. c #C58B0F",
"h. c #DFA317",
"j. c #E1A601",
"k. c #CC9120",
"l. c #D69C21",
"z. c #D99E22",
"x. c #D19721",
"c. c #D59D33",
"v. c #DDA223",
"b. c #DEA32A",
"n. c #DCA439",
"m. c #E1A523",
"M. c #E6AA25",
"N. c #F4B433",
"B. c #B9815C",
"V. c #AE875C",
"C. c #8B827C",
"Z. c #B98A64",
"A. c #B89163",
"S. c #B5947A",
"D. c #D29F4B",
"F. c #CD895F",
"G. c #C6825A",
"H. c #C9944F",
"J. c #D5A14B",
"K. c #CD8B62",
"L. c #C88A65",
"P. c #D18D64",
"I. c #D49165",
"U. c #D69368",
"Y. c #D9966C",
"T. c #DC986A",
"R. c #D69E73",
"E. c #E1986C",
"W. c #CFA077",
"Q. c #D3A276",
"!. c #D6A57A",
"~. c #DAA67A",
"^. c #DEAA7D",
"/. c #DCA477",
"(. c #E3AD7D",
"). c #E5A276",
"_. c #EBB27F",
"`. c #3E68AA",
"'. c #3B538C",
"]. c #445A93",
"[. c #5A6996",
"{. c #5C6D9B",
"}. c #55679B",
"|. c #61709E",
" X c #606D99",
".X c #466BAB",
"XX c #5976AD",
"oX c #5A77AE",
"OX c #5C79B1",
"+X c #5A77B0",
"@X c #4E71AF",
"#X c #6272A4",
"$X c #7C819E",
"%X c #7885A9",
"&X c #798CB4",
"*X c #7D90B6",
"=X c #8F8C8A",
"-X c #A09089",
";X c #BEA186",
":X c #8B9ABE",
">X c #8696BC",
",X c #9198B3",
"<X c #8288A3",
"1X c #BAB8AD",
"2X c #B6B9B3",
"3X c #C39E8C",
"4X c #DAAA80",
"5X c #C2A294",
"6X c #C6AB90",
"7X c #E4AF81",
"8X c #E6B182",
"9X c #EBB585",
"0X c #EEB98A",
"qX c #EEB888",
"wX c #F2BB8A",
"eX c #F0B887",
"rX c #EBBB94",
"tX c #C7BBAD",
"yX c #BDC3BB",
"uX c #C2C5BD",
"iX c #D1C9BE",
"pX c #909EC1",
"aX c #C7CBC5",
"sX c #D6D9D3",
"dX c #D1CFC6",
"fX c #ECECEC",
"gX c #E6E5E4",
"hX c #F5ECE7",
"jX c #FDF3ED",
"kX c white",
"lX c #FFFFFF",
"zX c #F7F8F7",
"xX c #EEF0F0",
/* pixels */
"                                    ..#.m.z.O.#.v.v.m.f.$.O.                                        ",
"                                    +.%.m.m.+.i.m.m.M.l.%.O.                                        ",
"                                O.#.z.z.v.v.z.v.v.v.m.v.z.f.O.O.                                    ",
"                                O.i.v.v.v.v.v.v.v.v.v.v.m.z.&.@.                                    ",
"                            O.&.v.f.%.@.[ / ~ ~ / { Q } v.v.v.f.+.O.                                ",
"                            ..&.v.z.@.| W U Y R R W I { v.v.v.l.+.*.                                ",
"                            p p [ [ T ~ X.X.X.X.X.X.@.X.~ ~ / / 0 u.lXlX                            ",
"                            p p I I R ~ @.$.$.$.@.@.@.| T R T ( 6 u.lXzX                            ",
"                    ..O.O.#.z.x.: y l.z.l.v.v.v.v.d.: l v.z.v.k.. x A.V. .3XlXlX                    ",
"                    $.i.$.#.v.x.. t l.v.l.v.l.l.v.k.. y v.v.v.k.X t  .o.o.W.lXzX                    ",
"                | $.v.f.#.O.k t + & y y y y k y k t # - y y y t . y :.a.h.J.:.6XlXlX                ",
"                $.g.v.v.@.| . . . . . . $ X . . . . . . . . . . . t | &.m.c.] W.lXlX                ",
"            ..#.z.f.%.@.t , - - . o - = . . - - = * . o - - - = . # - l +.a.n.D.V.V.                ",
"            O.i.m.v.O. .O . X . X . . + d d . . > ; > @ . . X . o . . t | &.M.s.&.o.                ",
"            ..i.v.l.y o - O . . . @ . x (.W.1 . . . . . . . . . . O . u +.p.v.b.N.n.                ",
"            ..@.m.l.t . # . . . . @ . v 0X(.< . f s s s % % . . . + X y | %.v.m.v.m.                ",
"                m.M.$. .- . o . . @ . f qX^.. x ^.8X9XW.. . O . . . . O . z N.M.                    ",
"                M.f.%.O., . + O o > 4 D (.!.< N 9X0X9XQ.c 3 O o o @ d s . l M.v.                    ",
"                    m.v.= . . . o 3 uX1X3 m 7X8X9X!., S uX1X. . . M 9XW.. o t ,                     ",
"                    v.z.f 3 d d , D aXuX. x 9X9X0X!.. A dX2X. > 1 F wX!.X o X .                     ",
"                    . m 8XeX8X8X(.rXlXxX$ g 9X9XqX4X. K lXfX. M 9X8XwX!.. .                         ",
"                    . d 8XqX8X8X9XrXlXhXc N 9X9X9X^.7 J zXgX- F 8X8X8XW.S S                         ",
"                            0.Z.9X0XrX0X_._.9XqXqX8X9X~.H 6.9X(.w.7.. =XlXlX                        ",
"                            7.w.(.(._.(.9X9X(.8X7X8XwX4Xa =.8X/.7.4.. y.lXzX                        ",
"                        m m x m w.B.Y./.eX9XT.T.Y.T.0X9XY.I.e.q.n N t.4.H H                         ",
"                        m B N =.4.7.G.L.^./.K.K.K.I.^.~.K.G.4.5.n N r.t.z z                         ",
"                    0.9.f M P.G.< < _ h h -.w.w.e.8._ h h p % x t.w.P.P.Y.L.j f                     ",
"                    q.r.N 2.Y.I.& & 0 0 8 p 4.4.7.5.0 8 0 8 . g 7.w.U.I.E.G.H D                     ",
"                7.7.9.q.P.U.eX(.h e Q Q Q ) _ p w e Q Q ) ( e j f 2.E.U.T.G.6 5                     ",
"                B.L.w.w.P.P.(.!.( r W T R Y 8 e ! ' R R R Y r p f N P.L.F.L.C.y.                    ",
"            9.r.8X8XI.K.w.9.B B T Y T Y R Q w ' m.l.Q U Q T Y Y p p i b 6 -XlXlX    lX              ",
"            5.B.9XqXY.I.9.5.f f W R Y T R Q w ' l.k.T U Q T T Y 0 _ y.y.5 -XlXlX    lX              ",
"            f 2.9X0X0X7XN f 1 : T T T T T Y e e w w R R T T T ( 8 u.lXlX            lX              ",
"            g N !.7X(.~.N f $ & T T T T R W e p z ! T T T T W ) 9 u.lXlX            lX              ",
"                M m m n         0 q P L L P 9 ] j.s.P L P L q 0         lXlXlXlXlXlXlX              ",
"                n n n n         Z C ,.,.<.<.V 3.J.H.<.1.<.,.C C         lXlXlXlXlXlXlX              ",
"                            {.XXOX+X+XoXoXXX[.[.+XOXoXOX+XOXOXXX{.{.            lXlX                ",
"                             X|.OXoXOXOXOXoX{.XXXX+XOXOXOXOXOXXX|.{.            lXlX                ",
"                            '.].@X@X`.`..X.X@X@X[.}.@X@X.X.X`..X}.].                                ",
"                            ,X,X*X*X:X:X>X>X&X&X[.|.&X&X:X:XpX>X%X<X                                ",
"                        lXlXlXzX2XaXlXlXlXlXsXaX#X<XuXsXlXlXlXzXyXsXlXlX                            ",
"                        lXlXlXlXsXsXfXfXfXgXdX2X X#X1XdXhXjXjXhXtXdXlXlX                            ",
"                            lXlXlXxX. . . .         7.r.P.Y.9X7XT.U.                                ",
"                            lXlXlXxX=XJ =XJ         0.G.P.T._.(.Y.P.                                ",
"                            lXlXlXlXlXlXlXlX        T.).wXwXwX7X;.;.                                ",
"                            lXlXlXlXlXlXlXlX        F.U.W.Q.(.4X5X5X                                ",
"                                lXlXlXlXlXlX        w.8.. d >.;XlXlX                                ",
"                                lXlXlXlXlXlX        4.2.. < -.S.lXlX                                ",
"                                                    . . @ O X .                                     ",
"                                                    . . . . . .                                     "
};
