/* XPM */
static char *_bad5e2810334920d0bae752ad02a746T8bX4Ow0id3XA8kM[] = {
/* columns rows colors chars-per-pixel */
"50 50 220 2 ",
"   c #010203",
".  c #0B0909",
"X  c #120D08",
"o  c #181817",
"O  c #2C180C",
"+  c #3B120E",
"@  c #241D18",
"#  c #36290F",
"$  c #302418",
"%  c #262727",
"&  c #3B3228",
"*  c #3B3D3D",
"=  c #501B15",
"-  c #661E17",
";  c #4E3A15",
":  c #4D391C",
">  c #6C221A",
",  c #692419",
"<  c #72241C",
"1  c #7B241D",
"2  c #772B1C",
"3  c #78371D",
"4  c #493626",
"5  c #543D2E",
"6  c #483D35",
"7  c #6A2C27",
"8  c #67352B",
"9  c #723129",
"0  c #59431A",
"q  c #664D1D",
"w  c #6F521C",
"e  c #71531C",
"r  c #5D4433",
"t  c #684E2F",
"y  c #665021",
"u  c #624533",
"i  c #664938",
"p  c #784E3A",
"a  c #73543D",
"s  c #433F40",
"d  c #673B44",
"f  c #45464A",
"g  c #484C58",
"h  c #515150",
"j  c #595759",
"k  c #66404C",
"l  c #655547",
"z  c #7D5A43",
"x  c #745B49",
"c  c #655957",
"v  c #7E685A",
"b  c #5F5E79",
"n  c #62536D",
"m  c #666768",
"M  c #7F796E",
"N  c #84251F",
"B  c #86271F",
"V  c #892720",
"C  c #872920",
"Z  c #8A2921",
"A  c #8C3423",
"S  c #923824",
"D  c #894B23",
"F  c #914622",
"G  c #994A26",
"H  c #8D5723",
"J  c #9A5A27",
"K  c #84483A",
"L  c #934F3B",
"P  c #A14E2B",
"I  c #8D6824",
"U  c #996127",
"Y  c #936A24",
"T  c #9B6D24",
"R  c #9E7325",
"E  c #9F762C",
"W  c #A3682D",
"Q  c #A17526",
"!  c #A27629",
"~  c #AA732D",
"^  c #A57A2A",
"/  c #AA7E2B",
"(  c #B26A32",
")  c #A47C33",
"_  c #B67E36",
"`  c #BA7F37",
"'  c #845B44",
"]  c #955D44",
"[  c #985B56",
"{  c #886747",
"}  c #85634A",
"|  c #946949",
" . c #896B56",
".. c #966B53",
"X. c #8F7359",
"o. c #9D7254",
"O. c #9E7A5D",
"+. c #A27556",
"@. c #A4765A",
"#. c #A6795A",
"$. c #AA7C5B",
"%. c #9E6F66",
"&. c #8A776B",
"*. c #947863",
"=. c #A47969",
"-. c #A27A76",
";. c #AE812F",
":. c #B0832F",
">. c #AE8335",
",. c #AA823D",
"<. c #B38531",
"1. c #B68932",
"2. c #BB8D35",
"3. c #BD8338",
"4. c #BA883A",
"5. c #BE9037",
"6. c #C1893A",
"7. c #C69739",
"8. c #C5963A",
"9. c #CC963E",
"0. c #CC9C3E",
"q. c #D09F3F",
"w. c #D1A03F",
"e. c #AB8746",
"r. c #BC9449",
"t. c #AE8A57",
"y. c #B48759",
"u. c #BB9959",
"i. c #998576",
"p. c #AB8467",
"a. c #B38563",
"s. c #B58B69",
"d. c #BB9669",
"f. c #B69577",
"g. c #BFA576",
"h. c #D5A442",
"j. c #D7A84A",
"k. c #D8AD57",
"l. c #C48969",
"z. c #C4926F",
"x. c #CA926C",
"c. c #C89974",
"v. c #D39C73",
"b. c #C7A86F",
"n. c #CAA57D",
"m. c #D4A47C",
"M. c #D8A87D",
"N. c #5B6387",
"B. c #5A6791",
"V. c #5C6A93",
"C. c #5E709E",
"Z. c #707890",
"A. c #5F73A3",
"S. c #6479A8",
"D. c #7884A5",
"F. c #788AB0",
"G. c #898989",
"H. c #988F88",
"J. c #8E8F90",
"K. c #979796",
"L. c #A9978B",
"P. c #AF9A8D",
"I. c #B8A598",
"U. c #9199AF",
"Y. c #9CA3B0",
"T. c #A9AAAA",
"R. c #B4ABAD",
"E. c #BDB6AE",
"W. c #B4B4B5",
"Q. c #BDBEBB",
"!. c #C19F96",
"~. c #C8A683",
"^. c #D7AA84",
"/. c #C9B38B",
"(. c #DBB48A",
"). c #C7A992",
"_. c #CEB892",
"`. c #D2BD99",
"'. c #E4B68B",
"]. c #E3B58C",
"[. c #C4B2AA",
"{. c #CAB6A8",
"}. c #E1BDA3",
"|. c #D4C09B",
" X c #D8C5A4",
".X c #C6C3B9",
"XX c #D5C8BA",
"oX c #DBD1BF",
"OX c #EBD4AE",
"+X c #C3C6C0",
"@X c #C8CAC6",
"#X c #D6C9C4",
"$X c #CFD2CC",
"%X c #D7D2CE",
"&X c #D2D3D3",
"*X c #DAD6D5",
"=X c #DDDBD5",
"-X c #DADADA",
";X c #E6DBC5",
":X c #E1DBD3",
">X c #E1DEDB",
",X c #EFE3CC",
"<X c #EBE2D3",
"1X c #E6E2DB",
"2X c #F4EAD6",
"3X c #DFE0E0",
"4X c #E6E6E6",
"5X c #EBE9E4",
"6X c #E7E7E8",
"7X c #E7E8E9",
"8X c #EBEBEB",
"9X c #F4EFE5",
"0X c #F2EEED",
"qX c #EFF0EE",
"wX c #FAF3E7",
"eX c #F5F1EB",
"rX c #F4F4F4",
"tX c #F9F8F5",
"yX c #F6F7F9",
"uX c #FDFDFD",
/* pixels */
"-X-X-X-X-X-X-X-X-X-X-X-X-X-X-X-X*X-X-X-X-X-X-X-X8XrXrXrXrXrX8X4X-X-X-X-X-X-X-X-X-X-X-X-X=X-X-X-X=X-X",
"4X4X6X6X4X6X6X4X4X4X4X4X4X4X4X4X6X8X8X:XXXoX;X;X:X,X2X2X2X2X2X8X8X8X8X8X8X8X8X8X8X4X6X6X6X6X6X6X4X4X",
"4X4X4X4X4X4X4X4X4X4X4X4X4X4X4X4X6XuXuX/.E >.j.j.>.E 5.j.j.j.k.,XuXuXuXuXuXuXuXuXyX4X4X4X4X4X4X4X4X4X",
"4X4X4X4X4X4X4X4X4X4X4X4X4X4X8XrX0X X|.b.1.5.w.h.5.1.7.h.w.5.5.m.|.OXOXOXtXuXuXuXyXrXeX6X4X4X4X4X4X4X",
"4X4X4X4X4X4X4X4X4X4X4X4X4X4X0XuXeXe.T 5.h.0.h.h.w.w.h.h.w.;.T R R :.w.k.wXuXuXuXuXuXuX8X7X6X4X4X4X4X",
"4X4X4X6X4X4X6X4X6X8XyXyXyXuX#X%.%.) R 7.h.w.:.:.w.j.h.h.w.7.5.5.7.0.h.j.b.b.;XuXuXuXuX8X4X4X4X4X4X4X",
"4X4X6X6X4X1X:X:X1X1X0XeX0X0X[.> , U T 1.w.7.^ ^ w.w.w.h.h.h.h.h.h.h.0.0.! Q `.wXtXuXuX8X4X4X4X4X4X4X",
"4X4X8XuXyXg.e.r.k.k.e.t.} A 9 > > B A J ;.:.0.0.;.;.5.h.h.h.h.h.h.7.^ ;.7.0.r.e.n.uXuX8X4X4X4X4X4X4X",
"6X8X5X,X;Xu.;.5.w.w.<.;.D 3 2 < 1 B Z F J W h.h.<.;.7.h.h.h.h.h.h.7./ 1.q.h.:.R d.uXuX8X4X4X4X4X4X4X",
"rXuX<X) E 0.w.w.w.h.w.w.;.R H B V Z B B B G h.j.w.w.h.h.h.h.h.h.h.h.h.h.h.h.1.T d.uXuX0X4X4X4X4X4X4X",
"yXuX9X_./.r.5.7.h.h.w.h.7.1.~ H F 1 1 1 1 A ( ( 0.h.h.h.h.h.h.h.h.h.h.h.h.h.7.1.r.`. X1XrX6X4X4X4X4X",
"yXuXuXuXyXu.T <.h.h.h.h.h.h.7.^ T 3 > > , < C Z 6.w.w.h.h.h.h.h.h.h.h.h.h.h.h.h.7.Q ) :XuXrX4X4X4X4X",
"8X8X0X8X6Xl O q 1.<.:.:.7.h.w.7.5.U H 3 , < V C G P W ;.5.h.h.h.w.h.h.h.1.>.7.h.7.Q >.<XuXyX4X4X4X4X",
"6X6X4X4X3Xh o : I I R R 5.w.w.h.h./ ^ H < 2 C C V B F T Q 7.9.9.9.9.w.0./ ^ 2.h.7.,.e.1XuXyX6X6X4X4X",
"4X4X4X4X6X3X3XG.X # I Q ;.^ 1.h.h.h.h./ U H , < B V B A A S S S S J ^ ^ 0.q.1.^ d.2XwXuXuXuXuXyX6X4X",
"4X4X4X4X6XtXuXK.  X q e e e I 7.8.7.7.1./ ~ D F S P S B B V V B B A U U _ 3.! H t.uXuXuXuXuXuXyX6X4X",
"4X4X4X4X4XyXuXK.            # Q E R ! 5.j.h.w.h.h.h.W > < C C Z V V Z C < > , , ..uXuXuXuXuXuXuX4X4X",
"6X4X4X4X6XyXuX@XD.m X   $ 5 a x.y.q ; I 2.2.2.2.0.h.3.U J G H C 1 1 V C > > 3 D | _.`.eXuXuXuXuXrXeX",
"eX6X4X4X6XyXuXuXtX=X%   a #.s.'.n.@   0 ^ E R ! 7.h.h.h.0.^ R 3 > 1 Z B < > H ! ! T ) <XuXuXuXuXuXuX",
"6X4X4X5X6XuXuXW.f j T.W.).m.^.'.~.@   M ;X|.^ R / <.>.;.<.7.9.4._ ` 6.6.3._ 5.7.2.! ) <XuXuXuXuXrX8X",
"4X4X4X4X6XtXuXK.o * 8XuXOX].'.'.^.& o G.0X#X,.) I I Y R ^ 0.h.0.w.h.h.h.j.h.h.h.7.^ ) ;XwXtXuXtX4X4X",
"4X4X4X4X4X6X6X-X@X%XtXuX}.v.v.'.].n.n.*.x  .M.m.& . 0 Q ! / ^ ^ ^ 1.h.h.0.h.1.^ / h.q.k.j.OX8X6X4X4X",
"4X4X4X4X4X4X6X6X6X6XtXtX).$.d.(.].'.'.s.{ O.(.^.r @ : w e e e I R ;.7.7.h.h.5.;.1.8.7.8.7._.5X6X4X4X",
"4X4X4X4X4X4X4X6X6X4X6X8X&.5 ..].'.'.'.].'.'.'.'.y.o.r         e ^ Q Q ;.w.h.h.h.7.Q R Q Q ~.6X6X4X4X",
"4X4X4X4X4X4X4X4X4X4X4X4XE.L.L.z.z.m.m.m.m.M.'.].c.c. .r 4     # : ; ; ; q y t y { `.`.`.`.oX4X4X4X4X",
"4X4X4X4X4X4X4X4X4X4X4X4X8X6XXX@.$.l.x.x.x.v.(.].].].z.+.} .                     h yXuXuXuXrX4X4X4X4X",
"4X4X4X4X4X4X4X4X4X4X4X4X4X4X-X#XXXp.=...z ' a.a.a.s...a i = = X             m T.Q.8X8XqX8X6X4X4X4X4X",
"4X4X4X4X4X4X4X4X4X4X4X4X4X4X4X6X>Xf.p.X.x } $.$.o...} t i 7 , O . .     o % K.8X6X4X4X4X4X6X4X4X4X4X",
"4X4X4X4X4X4X4X4X4X4X4X4X4X4X4X4X6X-X:X-X=X#X'.^.} i ' o.| u 8 7 - +   o W.$X-X4X4X4X4X4X4X4X4X4X4X4X",
"4X4X4X4X4X4X4X4X4X4X4X4X4X4X4X4X6X6X4X#XR.!.l.l.K 8 L @.o.] ' 8 - 8 h m &X8X6X4X4X4X4X4X4X4X4X4X4X4X",
"4X4X4X4X4X4X4X4X4X4X4X4X4X4X6X4X4X4X4X-.- 1 C Z C C L @.$.x.x.K - %.uXuX6X6X4X4X4X4X4X4X4X4X4X4X4X4X",
"4X4X4X4X4X4X4X4X4X4X4X4X4X4X6X6X-X/.~.] 1 1 C Z Z Z S L L $.y.p 8 } {.{.1X6X4X4X4X4X4X4X4X4X4X4X4X4X",
"4X4X4X4X4X4X4X4X4X4X4X4X4X4X4X4X=Xe.T F B B B V V V V V A ..o.z u z +.p.%X4X4X7X6X6X4X4X4X4X4X4X4X4X",
"4X4X4X4X4X4X4X4X4X4X4X4X4X4X4X4X=XK 3 2 B B B B V V B 1 7 p p o.$.z.m.~.f.f.{.8X4X6X4X4X4X4X4X4X4X4X",
"4X4X4X4X4X4X4X4X4X4X4X4X4X4X4X4X*XK 2 2 Z B B B V V 1 7 8 u u $.v.M.].(.$.o.{.7X4X4X4X4X4X4X4X4X4X4X",
"4X4X4X4X4X4X4X4X4X4X4X4X4X4X4X4X=X,.T F B B < > - - d N.b i u f.'.'.].^.p.@.{.7X4X4X4X4X4X4X4X4X4X4X",
"4X4X4X4X4X4X4X4X4X4X4X4X4X4X4X6X=Xg.t.O...[ k d d d n A.B.c c %.s.f.n.c...{ [.7X4X4X4X4X4X4X4X4X4X4X",
"4X4X4X4X4X4X4X4X4X4X4X4X4X4X4X4X4X@X+X+X+XT.V.B.V.V.A.S.A.V.V.g & k o.o.i u I.6X4X4X4X4X4X4X4X4X4X4X",
"4X4X4X4X4X4X4X4X4X4X4X4X0XtXqX6X4X@X+X*X6X*XY.Y.S.S.C.C.B.g g s 6 u z a $ @ K.6X4X4X4X4X4X4X4X4X4X4X",
"4X4X4X4X4X4X4X4X4X4X4X4XeXyX8X4X3X.XQ.4XuXqX@X+XF.S.C.V.N.s * 5 u r r 5 o X J.8X4X4X4X4X4X4X4X4X4X4X",
"4X4X4X4X4X4X4X4X4X4X4X4XL.v i.^.c.c h K.*X$X.X+XD.V.V.B.Z.@X$X&.r 4 X % R.@X-X4X4X4X4X4X4X4X4X4X4X4X",
"4X4X4X4X4X4X4X4X4X4X4X4XH.x  .@.+.l h i..X.XE.E.U.D.D.D.U.yXuXL.v l % f 6XuX0X4X4X4X4X4X4X4X4X4X4X4X",
"4X4X4X4X4X4X4X4X4X4X4X4X>X-XJ.. o f.(.^.x.c.t.$.*XyXrXyXyXuXuXyXrX8X8XqXuXuXqX4X4X4X4X4X4X4X4X4X4X4X",
"4X4X4X4X4X4X4X4X4X4X4X4X6X6XQ.j j  .X.} K X.P.I.>XyXyXyXyXyXyXrXyXyXyXtXyXyX8X4X4X4X4X4X4X4X4X4X4X4X",
"4X4X4X4X4X4X4X4X4X4X4X4X6X4X4X6X&X%       * >X4X4X4X4X4X4X4X4X4X4X4X4X4X4X4X4X4X4X4X4X4X4X4X4X4X4X4X",
"4X4X4X4X4X4X4X4X4X4X4X4X4X4X4X6X3XK.G.G.G.T.3X4X4X4X4X4X4X4X4X4X4X4X4X4X4X4X4X4X4X4X4X4X4X4X4X4X4X4X",
"4X4X4X4X4X4X4X4X4X4X4X4X4X4X4X4X4X8X8X6X6X6X4X4X4X4X4X4X4X4X4X4X4X4X4X4X4X4X4X4X4X4X4X4X4X4X4X4X4X4X",
"4X4X4X4X4X4X4X4X4X4X4X4X4X4X4X4X4X4X4X4X4X4X4X4X4X4X4X4X4X4X4X4X4X4X4X4X4X4X4X4X4X4X4X4X4X4X4X4X4X4X",
"4X4X4X4X4X4X4X4X4X4X4X4X4X4X4X4X4X4X4X4X4X4X4X4X4X4X4X4X4X4X4X4X4X4X4X4X4X4X4X4X4X4X4X4X4X4X4X4X4X4X",
"4X4X4X4X4X4X4X4X4X4X4X4X4X4X4X4X4X4X4X4X4X4X4X4X4X4X4X4X4X4X4X4X4X4X4X4X4X4X4X4X4X4X4X4X4X4X4X4X4X4X"
};
