/* XPM */
static char *_0aea8a63bf848a4fb0f922a2f2f3654IBiYg8zs6faxxEMq[] = {
/* columns rows colors chars-per-pixel */
"50 50 225 2 ",
"   c None",
".  c #000001",
"X  c #0B0300",
"o  c #020708",
"O  c #190400",
"+  c #1C1204",
"@  c #171D1F",
"#  c #000F1C",
"$  c #250304",
"%  c #2C1813",
"&  c #261903",
"*  c #36271C",
"=  c #361E23",
"-  c #3D2B22",
";  c #242626",
":  c #5D0000",
">  c #530000",
",  c #560009",
"<  c #640000",
"1  c #6B0001",
"2  c #750203",
"3  c #680014",
"4  c #7B0414",
"5  c #731B14",
"6  c #781915",
"7  c #6D120E",
"8  c #462B1F",
"9  c #54370B",
"0  c #663900",
"q  c #7C2B19",
"w  c #7E3513",
"e  c #6D2F13",
"r  c #47372A",
"t  c #573A29",
"y  c #582C20",
"u  c #653626",
"i  c #76312B",
"p  c #634201",
"a  c #6A491D",
"s  c #5A412E",
"d  c #684629",
"f  c #694934",
"g  c #7E553D",
"h  c #754E29",
"j  c #564546",
"k  c #595C5D",
"l  c #775B42",
"z  c #6A5257",
"x  c #7C6451",
"c  c #645567",
"v  c #636565",
"b  c #7B6861",
"n  c #860000",
"m  c #950107",
"M  c #8D0017",
"N  c #940018",
"B  c #940414",
"V  c #841A15",
"C  c #961518",
"Z  c #961D18",
"A  c #981C1A",
"S  c #961917",
"D  c #852617",
"F  c #95231A",
"G  c #992219",
"H  c #91241A",
"J  c #863A15",
"K  c #993716",
"L  c #803002",
"P  c #921935",
"I  c #91312D",
"U  c #934900",
"Y  c #9B5B00",
"T  c #975A06",
"R  c #874317",
"E  c #9D4515",
"W  c #984717",
"Q  c #905307",
"!  c #A15C02",
"~  c #AB5A1B",
"^  c #A74A1A",
"/  c #956402",
"(  c #9C6501",
")  c #9D6B03",
"_  c #9C6C0B",
"`  c #A06300",
"'  c #A26C02",
"]  c #A56C07",
"[  c #A57201",
"{  c #AB7504",
"}  c #AD7903",
"|  c #AD780A",
" . c #B37C03",
".. c #B27E0C",
"X. c #B67B00",
"o. c #A56A13",
"O. c #B3651C",
"+. c #A77111",
"@. c #A97715",
"#. c #B37C14",
"$. c #B17B17",
"%. c #9D4834",
"&. c #885030",
"*. c #AC573E",
"=. c #AB7A33",
"-. c #AA7429",
";. c #8A5D41",
":. c #AF5E43",
">. c #946446",
",. c #9B6B4D",
"<. c #986646",
"1. c #986956",
"2. c #8F735B",
"3. c #A46D4D",
"4. c #A66C45",
"5. c #AC7552",
"6. c #A77A59",
"7. c #B57F5A",
"8. c #B67B57",
"9. c #A76F50",
"0. c #90786B",
"q. c #C57945",
"w. c #B68111",
"e. c #BA8412",
"r. c #BA8519",
"t. c #BE8818",
"y. c #B78009",
"u. c #BA8627",
"i. c #B9853B",
"p. c #DD9B00",
"a. c #D69B0C",
"s. c #D29506",
"d. c #C38B1B",
"f. c #CD951C",
"g. c #D49A1E",
"h. c #D49B1B",
"j. c #DFA207",
"k. c #E3A51B",
"l. c #C48D27",
"z. c #CE9726",
"x. c #D49721",
"c. c #D69C21",
"v. c #D89E21",
"b. c #D39B2B",
"n. c #D99F28",
"m. c #CC9737",
"M. c #D39D37",
"N. c #DEA323",
"B. c #DEA42C",
"V. c #DBA232",
"C. c #E1A624",
"Z. c #E5A925",
"A. c #E1A62A",
"S. c #E7AB2B",
"D. c #E5AA36",
"F. c #B8865A",
"G. c #B48E64",
"H. c #B88567",
"J. c #BB956B",
"K. c #C5855D",
"L. c #CF9256",
"P. c #C58B63",
"I. c #D38E64",
"U. c #C7966D",
"Y. c #DA956A",
"T. c #D7966B",
"R. c #C79A73",
"E. c #CB9C72",
"W. c #D39E74",
"Q. c #D89D74",
"!. c #C7A17C",
"~. c #DBA379",
"^. c #D7A278",
"/. c #E2A979",
"(. c #EAB078",
"). c #5A6897",
"_. c #797880",
"`. c #656D9A",
"'. c #64739D",
"]. c #70799D",
"[. c #5272AC",
"{. c #6878A5",
"}. c #606EA1",
"|. c #7488B7",
" X c #6B85B8",
".X c #929292",
"XX c #A98C88",
"oX c #AA9492",
"OX c #BC9392",
"+X c #BEA38B",
"@X c #A9A8A7",
"#X c #C2A384",
"$X c #C2A68A",
"%X c #C5A88B",
"&X c #D4AE89",
"*X c #E7B182",
"=X c #EAB585",
"-X c #EEB887",
";X c #EEB989",
":X c #E3BA83",
">X c #F3BB8A",
",X c #F8BF8D",
"<X c #ECB88B",
"1X c #CFBAA7",
"2X c #EAC594",
"3X c #FFC792",
"4X c #C7C7BE",
"5X c #DECEBE",
"6X c #CACAC6",
"7X c #DAD4CB",
"8X c #D2D2D2",
"9X c #D9D9D7",
"0X c #D9CBC1",
"qX c #E7DCD5",
"wX c #EBE2DB",
"eX c #F6E6DD",
"rX c #F8EFE5",
"tX c #F1EDEA",
"yX c #F5EDE6",
"uX c #F4F1EE",
"iX c #FAF3EE",
"pX c #FEF9F3",
"aX c #FFFEFE",
"sX c #F8F5F2",
"dX c #EEEBEA",
/* pixels */
"                                                iXyXrXrXpXiX                                        ",
"                                    aXwXY u.S.a.Y X.j.j.p.2XaXaXaXaXaXaXaXaX                        ",
"                                    pX0X{ d.C.c.$.d.Z.V.s.:XtXyXrXiXaXaXaXaX                        ",
"                                aXwXT t.A.N.N.C.N.N.N.f.( [ ( w.p.2XaXaXaXaXaXaX                    ",
"                                aX5XY r.B.N.h.v.N.N.C.g...w.} t.p.:XtXtXaXaXaXaX                    ",
"                        aXaXaXqX> U @.l.Z.f./ w.Z.N.N.N.N.N.A.B.D.M.U $XaXaXaXaX                    ",
"                        pXdXtX6X: R ` #.v.f.| d.c.c.N.N.N.N.N.N.h.b.{ #XtXtXaXaX                    ",
"            aXqXY u.Z.f.) T 1 2 7 q N W [ e.Z.f.( w.C.N.N.N.C.f.) ..Z.b.Y #XaXaX                    ",
"            aX5X{ l.Z.f. .` w 0 6 D N E ` #.Z.f.| d.Z.N.N.N.Z.g.| e.Z.b.( +XaXaX                    ",
"            ! X.S.N.N.C.D.z.+.~ N C S G N O.Z.C.N.N.N.N.N.N.N.N.N.N.Z.b.Y +XaXaX                    ",
"            +XL.a.v.N.N.N.f...+.K K Z H M ~ g.x.N.N.N.N.N.N.N.N.N.N.N.b.{ !.aXtX                    ",
"            aXqXY l.k.N.C.C.C.f.' T 3 5 5 D N O.Z.N.N.N.N.N.N.N.N.N.Z.N.k.M.Y $XaXaX                ",
"            aX7XQ u.h.c.c.c.C.f...o.w w 5 D N ~ x.x.x.v.N.N.N.N.N.N.c.v.k.M.Y $XaXaX                ",
"                . 0 #.} [ e.Z.N.C.f.[ T 3 6 G Z N E [ e.Z.N.N.N.Z.f./ w.Z.M.U #XaXaX                ",
"                _.2./ _ [ e.c.c.Z.f...o.w J Z F S E ' $.c.c.g.x.N.f.| e.a.L.G.1XaXaX                ",
"                aX8X. a @.{ [ t.Z.N.A.f.) T 3 4 N N Z S S G N E [ e.Z.b.' %XaXaXaXaXaXaX            ",
"                aX8X. d _ _ / #.N.c.c.f...+.R W ^ E V G C S N K ] | x.l.U $XaXaXaXaXaXaX            ",
"                aX8X. . o X . p [ [ [ e.k.C.C.C.C.l.3 4 C S G G A V 6 i < XXaXaXaXaXaXaX            ",
"                aX9Xk k @ - = h i.=./ $.n.M.h.v.C.l.J W K K F F G H 5 i 2 XXuXsXaXaXaXaX            ",
"                aXaXaX8X. u 3.P.>XR.. p ' ' +.e.C.C.C.f.) T 3 4 N M 3 J ' =.` %XaXaXaXaX            ",
"                aXsXsX8Xk 0.5.U.>XE.. l J.G.[ r.N.h.N.f.} +.R W ^ W R T | u.! %XaXaXaXaX            ",
"                aX9X. @XaXeX(.=X-XR.o .XaXwXY +.+.{ ) e.Z.N.N.N.N.N.N.N.C.M.Y %XaXaXaXaX            ",
"                aX8X. @XaXeX/.*X-X^.$ oXsX7X} =._ _ ) w.N.c.N.c.N.N.N.N.g.M.` #XpXpXaX              ",
"                        pXeXL./.-X*X-XE.; 9.,XU.. p | | [ | [ w.C.N.C.g.) w.C.B.D.D.                ",
"                        aXqXq.Q.<X*X>XW.d 6.3XR.o a ) _ ( ) ' w.N.h.Z.g.[ r.B.n.k.a.                ",
"                            t F.>X=X=X=X-X*X=X^.9.;.. + o p | | [ e.Z.N.A.a.( ' } '                 ",
"                            8 6.*X*X(.*X(.*X=X~.7.,.% * . 9 ) ) / @.c.z.h.m.G.G.J.F.                ",
"                                8.F.Y.Y.Y.~.-X=X-X~.5.>.. o + + + + & * . .XaXaXaXaX                ",
"                                9.8.I.I.K.T.*X*X=X^.9.>.O O . . o . . # . .XaXaXaXaX                ",
"                                    K.3.s ;.5.5.5.1.t u 6 7 . o X O + +                             ",
"                                    5.>.t ;.7.8.3.<.f h i e $ % ; @ . .                             ",
"                                            3X!.r &.5.>.y y 6 : . .                                 ",
"                                            3XU.y &.7.9.l l 2 i v v                                 ",
"                                        5 D G G n :.I.Q.;XW.> oXaXaX                                ",
"                                        6 V B G F :.I.Y.;X^.: oXaXaX                                ",
"                                    | o.N G B %.9.9.3.P.>X~.n OXaXaX                                ",
"                                     .T N H m %.7.7.5.P.=XW.2 OXaXaX                                ",
"                                    6 V A H < 9.-X*X-X^.5.9.: oXaXaX                                ",
"                                    q D A I : 9.-X*X-X^.3.1.: oXaXaX                                ",
"                                    y.` m H 9 <.Y.Q.,XW.0 z }.`.                                    ",
"                                    } ~ P ;.j 2.I.T.=XR.j k }.).                                    ",
"                                        }.).[.).0 d 0 c [.[.}.).                                    ",
"                                        ).}. X].x b x _.|.|.].'.                                    ",
"                                            6X8XaXaXsXaXaXdX8X4X                                    ",
"                                            0X7XaXaXaXsXaXdX4X6X                                    ",
"                                        t 1.T.~.<X<X,X&XH.H.                                        ",
"                                        s <.I.Y.*X/.*XQ.4.4.                                        ",
"                                            * - r r r r                                             ",
"                                            . . . . . .                                             ",
"                                                                                                    "
};
