/* XPM */
static char *b6a26205b6ca47c9fb5b37b9728474755FAaem1hfqwRWYEX[] = {
/* columns rows colors chars-per-pixel */
"50 50 215 2 ",
"   c #010103",
".  c #0B0606",
"X  c #0B0B0A",
"o  c #150A09",
"O  c #000A12",
"+  c #161719",
"@  c #270D0B",
"#  c #33110E",
"$  c #261C16",
"%  c #292018",
"&  c #332516",
"*  c #3C2D11",
"=  c #2A2C2D",
"-  c #332E2D",
";  c #2D3132",
":  c #3A3534",
">  c #471712",
",  c #531B15",
"<  c #5B1D17",
"1  c #671F17",
"2  c #691F19",
"3  c #58221A",
"4  c #493117",
"5  c #6C221A",
"6  c #6A291F",
"7  c #72231B",
"8  c #7D251E",
"9  c #732D1D",
"0  c #792B1E",
"q  c #79351E",
"w  c #462F29",
"e  c #473527",
"r  c #5A3528",
"t  c #6B342E",
"y  c #763329",
"u  c #59451C",
"i  c #604B1E",
"p  c #5D4231",
"a  c #6F4A2C",
"s  c #78592B",
"d  c #624633",
"f  c #664A36",
"g  c #6A4936",
"h  c #6B4D39",
"j  c #6A5236",
"k  c #71523D",
"l  c #683A42",
"z  c #743B43",
"x  c #7D3D46",
"c  c #494949",
"v  c #4D4F4D",
"b  c #6B5646",
"n  c #755A48",
"m  c #78604F",
"M  c #786353",
"N  c #7C7874",
"B  c #83261F",
"V  c #8A261E",
"C  c #822A1F",
"Z  c #823B1F",
"A  c #872720",
"S  c #892720",
"D  c #8B2A21",
"F  c #893524",
"G  c #874923",
"H  c #954524",
"J  c #8A5222",
"K  c #995F25",
"L  c #95562A",
"P  c #9D5C2C",
"I  c #884F37",
"U  c #A24F2B",
"Y  c #A4542C",
"T  c #976525",
"R  c #9E7327",
"E  c #9F752A",
"W  c #926A31",
"Q  c #A17526",
"!  c #A4762B",
"~  c #A4792A",
"^  c #AA7C2C",
"/  c #AA6A30",
"(  c #A57D34",
")  c #B27433",
"_  c #8A524B",
"`  c #8A644A",
"'  c #986C4F",
"]  c #836C5D",
"[  c #966D50",
"{  c #9A6E51",
"}  c #9C7255",
"|  c #A17455",
" . c #A6795A",
".. c #AA7B5B",
"X. c #826866",
"o. c #867366",
"O. c #917E72",
"+. c #B57F62",
"@. c #AE812E",
"#. c #B0832F",
"$. c #AC8235",
"%. c #B28431",
"&. c #B68A33",
"*. c #BB8D35",
"=. c #B98D39",
"-. c #BE9036",
";. c #C18339",
":. c #C38F3B",
">. c #C4943A",
",. c #C8973C",
"<. c #CB9B3D",
"1. c #D09F3F",
"2. c #D5A23D",
"3. c #AC894A",
"4. c #B7914B",
"5. c #AE8D51",
"6. c #B18B57",
"7. c #B39358",
"8. c #97867B",
"9. c #AA866B",
"0. c #B58362",
"q. c #B98663",
"w. c #BA8967",
"e. c #BA9E6D",
"r. c #B79376",
"t. c #BDA475",
"y. c #C49745",
"u. c #D5A442",
"i. c #D9A844",
"p. c #CEA554",
"a. c #C18C67",
"s. c #C48E69",
"d. c #C7936D",
"f. c #CD946D",
"g. c #CA9C77",
"h. c #D29B73",
"j. c #CCA768",
"k. c #D2AD63",
"l. c #D9B469",
"z. c #C6A67A",
"x. c #D1A27B",
"c. c #D9A77F",
"v. c #D9BA7B",
"b. c #58658F",
"n. c #596691",
"m. c #5D6992",
"M. c #5E6E9C",
"N. c #616D96",
"B. c #65739A",
"V. c #5F73A4",
"C. c #5E76AB",
"Z. c #6073A4",
"A. c #6F7DA0",
"S. c #6176A8",
"D. c #6078AC",
"F. c #818283",
"G. c #8D8E8F",
"H. c #9D8E84",
"J. c #8F8F90",
"K. c #979797",
"L. c #B6A293",
"P. c #8B94AB",
"I. c #8B94AC",
"U. c #8B99B5",
"Y. c #A599A3",
"T. c #9DA5BD",
"R. c #A5A4A6",
"E. c #B3AFAC",
"W. c #BCB3AE",
"Q. c #B6B6B6",
"!. c #D9AB83",
"~. c #DBB986",
"^. c #CAB39A",
"/. c #E3B58B",
"(. c #E6B98E",
"). c #C5AFA0",
"_. c #C8BBA7",
"`. c #C4BBB6",
"'. c #DEC798",
"]. c #D8C8AA",
"[. c #C4C3BD",
"{. c #D6C7B7",
"}. c #D9D0BF",
"|. c #E1D0AD",
" X c #E4CBB7",
".X c #9CABC8",
"XX c #AEB4C2",
"oX c #A2B0CE",
"OX c #BFC1C6",
"+X c #C8C9C4",
"@X c #D6CBC5",
"#X c #DAD4CA",
"$X c #C6CAD3",
"%X c #CED1D1",
"&X c #D5D4D3",
"*X c #DBD6D4",
"=X c #DFDAD4",
"-X c #DDDCDB",
";X c #E5D8C7",
":X c #F2DDC8",
">X c #E3DAD4",
",X c #E2DFDC",
"<X c #EAE1D6",
"1X c #E4E1DD",
"2X c #DCDEE1",
"3X c #E6E6E6",
"4X c #EAE6E3",
"5X c #E9E8E6",
"6X c #E7E7E8",
"7X c #E7E8E9",
"8X c #EBEBEB",
"9X c #F1F1EF",
"0X c #F4F4F4",
"qX c #F8F8F7",
"wX c #FEFEFE",
/* pixels */
"3X3X3X3X3X3X3X3X3X3X3X3X3X3X3X3X6X1Xe.3.p.l.j.5.5.k.l.l.l.k.7.5.].7X3X3X3X3X3X3X3X3X3X3X3X3X3X3X3X3X",
"3X3X3X3X3X3X3X3X3X3X3X3X3X3X6X4X1X=X3.R -.u.<.E E >.u.u.2.1.@.R ^.3X2X5X3X3X3X5X7X3X3X3X3X3X3X3X3X3X",
"3X3X3X3X3X3X3X3X3X3X3X3X3X6X6X{.7.7.,.,.<.u.u.,.<.1.u.u.u.u.<.>.4.5.z.3X7X7X3X3X3X3X3X3X3X3X3X3X3X3X",
"3X3X3X3X3X6X3X3X3X3X3X3X3X1X1X_.Q ~ ,.2.u.u.u.u.2.u.i.2.u.u.2.2.&.R 7.=X,X1X3X3X3X3X3X3X3X3X3X3X3X3X",
"3X3X3X3X3X3X3X3X3X3X3X3X3Xz.3.4.<.,.@.^ -.u.u.u.u.u.u.u.u.u.u.u.y.<.,.3.5.#X7X3X3X3X5X3X3X3X3X3X7X3X",
"3X3X3X3X3X3X3X3X3X3X3X3X3Xe.Q #.u.2.@.E &.u.<.u.u.u.u.u.u.u.u.u.u.u.,.Q ^ @X8X5X3X3X3X3X3X3X3X3X3X3X",
"3X3X6X3X3X3X3X3X3X3X6X6X3Xv.1.u.u.i.u.<.&.~ %.u.u.u.u.u.u.u.u.u.u.u.,.R ( <XwX0X7X7X5X3X3X3X3X3X3X3X",
"3X3X3X3X3X3X3X3X,X>X*X@X@Xj.:.>.<.<.u.u.-.~ %.u.i.u.u.u.u.u.u.u.u.<.-.T R {.1X<X#X#X7X8X7X3X3X3X3X3X",
"3X3X3X3X3X3X3X7X|.p.p.a y y 0 G ~ ^ 1.u.u.y.u.u.u.u.u.u.u.u.u.u.&.~ T 9 9 y y I $.7.9XwX9X3X3X3X3X3X",
"3X6X3X3X3X3X#X}.~.1.>.0 2 2 7 q T T <.u.u.u.u.u.u.u.u.1.<.<.<.<.~ T J 7 5 5 5 G @.4.;X1X1X8X7X3X3X3X",
"3X3X3X3X3X2Xe.E =.i.:.0 2 8 S 8 5 q >.u.i.u.u.u.i.u.i.>.Q ! ~ Q G 5 7 A A 7 1 T 1.,.$.( }.wXqX3X3X3X",
"3X3X3X1X{.].4.@.:.u.<.J G F S A 7 0 ) ;.;.;.;.;.=.;.;.) T K T T Z 7 8 S A y q / u.<.@.@.'.:X>X5X3X3X",
"3X3X7X}.( ~ ,.2.1.u.u.u.u.U S S S V D D D D D D D D D D V D D V D D S V A T E *.u.u.u.u.%.E e.3X3X3X",
"3X3X7X{.~ R <.u.u.u.2.,.:./ Y H H F C 8 A S A B A 8 8 8 B 8 B 8 F F H U Y ^ #.-.u.u.u.u.-.#.t.5X3X3X",
"3X3X7X{.E E ,.u.u.u.1.~ R :.2.>.R T q 1 8 A A 2 5 1 1 5 5 1 5 5 J R ^ u.u.u.u.u.u.i.u.u.u.2.v.3X3X3X",
"3X3X7X#Xt.t.p.2.u.u.1.&.%.<.u.<.&.%.P L P Y Y L L L L L L L L L ! &.-.u.u.u.u.<.-.-.u.u.l.v.|.3X3X3X",
"3X3X3X3X7X1Xl.2.u.u.u.u.u.u.u.i.u.u.u.u.u.u.u.u.u.u.u.u.u.u.u.u.u.u.u.u.u.u.u.-.R ~ 2.i.|.8X7X3X3X3X",
"3X3X3X3X6X3X'.'.l.u.u.-.-.*.-.-.u.u.u.u.u.u.u.u.u.u.u.u.u.u.u.u.u.u.1.-.*.-.&.&.&.$.s s W.7X5X3X3X3X",
"3X3X3X6X3X3X3X7X].2.u.E R R R @.u.u.u.u.u.u.u.u.u.u.u.u.u.u.u.u.2.u.,.Q R R R &.i.%.X   K.8X3X3X3X3X",
"3X3X3X3X3X3X3X6XL.i i s s $.-.*.&.*.&.&.&.&.&.&.*.&.&.&.&.&.&.*.&.&.@.s s u 4 u i j N F.+X7X7X3X3X3X",
"3X3X3X3X3X3X3X8XF.  X p f $.i.,.R R E R R R E R R R R R R R R E R R W d p X       = *X8X7X7X3X3X3X3X",
"3X3X3X3X3X3X3X6X[.G.K.W.W.9.W j * * * * * * * * * * * * * * * * * * & $ $ .   v R.E.2X3X3X3X3X3X3X3X",
"3X3X6X3X3X3X3X3X7X7X7XwXwX8.p w                                               N qXqX7X3X3X3X3X3X3X3X",
"3X3X3X3X3X6X3X6X6X6X*X8.O.n p d k h 3 > @   . > > o       . > > r n f e e h k M 8.H.-X7X3X3X3X3X3X3X",
"3X3X3X3X3X3X3X3X4X3X@Xb r f d n } ' y 5 #   o 5 5 @     . o < 5 _ } ` j h ' ..` p M &X1X3X3X3X3X3X3X",
"3X3X6X3X3X3X3X7X`.r.9.h p [ +.` % $ 5 5 1 , < 8 B 2 1 < , , 5 5 > $ e ` ' q.s.q.+.6.] X.[.7X3X3X3X3X",
"3X3X3X3X5X5X1X1X).{ { k b ..h.[ . . < 5 5 5 7 S V S S B 5 5 5 5 #   % } | s.f.f.f.q.g f W.6X3X3X3X3X",
"3X3X3X3X5X1XL.9.+.|  .6.0.h.(.0.< < 7 A A A A S S S S S A 8 A A 2 , r j k q.f.f.f.q.g d W.7X3X3X3X3X",
"3X3X3X3X=X>Xr... . ...s.d.x.!.+.5 5 A D S S S S S S S S S S S S 8 5 6 t g ..a.a.a.0.n n `.7X5X7X7X7X",
"3X3X3X@X9.9.!.!.x.d.s... .` k k A A A S S S S S S S S D S S S S A A 8 6 5 g k h h ] >X7X3X3X8XwXwXwX",
"3X3X7X@X} [ x./.c.h.d.} ' g e t S S S S S S S S S S S S S S S S S S A 5 5 n M m n O.0XwX8X3X0XwXwXwX",
"3X3X7X`.b h g.(././.x.k f $   # A S S S S S S S S S S S S S S S S S 8 2 7 @X9X3X&X-X6X6X3X3X8XwXwXwX",
"3X3X3X+XM ] r.z.g.g.r.] M c = w A A A S S S S A A A S S V V D V B B F _ _ >XwX0X8X8X8X8X8X8X0XwXwXwX",
"3X3X6X3X2X*Xo.f f f M @X3X-X2XL.2 7 B V V V A 5 2 B V S V V V V 8 1 _ &X,X3X6X0XwXwXwXwXwXwXwXwXwX8X",
"3X3X3X3X6X1XH.X.o.o.8.=X6X&X$XY.l l z _ x x x t t z x x x x x x z l X.XX$X2X3X0XqXqXqXqXwXwXwXqXqX6X",
"3X3X3X3X3X3X1X3X2X1X2X3X3XU.m.B.S.V.V.D.S.S.Z.n.m.Z.S.S.S.S.S.D.S.S.Z.B.B.$X3X3X7X6X6X6XqXwXqX7X6X3X",
"3X3X3X3X3X3X3X3X3X3X3X3X3XU.n.M.D.D.D.D.D.D.C.M.M.V.Z.S.D.D.D.D.S.D.Z.m.B.$X5X3X3X3X3X3X0X0X0X3X3X3X",
"3X3X3X3X3X3X3X3X3X3X3X6X3XI.b.M.C.C.C.C.C.C.C.C.C.M.N.M.C.D.C.C.C.D.V.n.B.$X7X3X3X3X6X3X3X3X3X3X3X3X",
"3X3X3X6X3X3X3X3X3X3X6X9XqXXX.XT.U.U..XoXoXoX.XU.U.B.m.B.U.U..XoXoXoX.XP.P.2X0X7X3X3X3X3X3X3X3X3X3X3X",
"3X3X3X3X3X3X3X3X3X3X8XwXwXwXwX4X+X+XqXwXwXwX0X+X+XA.n.I.+X%XqXwXwXwX8X+X+X0XwX0X3X3X3X3X3X3X3X3X3X3X",
"3X3X3X3X3X3X3X3X3X3X6X0X0XwXwX0X3X-XK.F.F.F.K.%X*XXXT.E.L.L. X X:X:X X).).3X0X8X3X3X3X3X3X3X3X3X3X3X",
"3X3X3X3X6X3X3X3X3X3X3X3X3X0XwXwXwX8X=       ; *X6X4X4X`.|  .a.f.c./.!.f.h.;X6X3X3X3X3X6X3X3X3X3X3X3X",
"3X3X3X3X3X3X3X3X6X3X3X3X6XqXwXwXwX0XR.J.G.G.R.1X6X6X3X_.6.a.x.c.!./.!...w.#X6X3X3X3X3X3X3X3X3X3X3X3X",
"3X3X3X3X3X3X3X3X3X3X3X3X3X0XwXwXwXwXwXwXwXwXwX3X6X6X3X Xf.f././././.!. ...@X6X3X3X3X3X3X3X3X3X3X3X3X",
"7X3X3X3X3X3X3X3X3X3X3X3X3X8X0X0XwXwXwXwXwXwXwX6X3X3X6XE.b b M M b v N {.;X,X3X3X3X3X3X3X3X3X3X3X3X3X",
"3X3X3X3X3X3X3X3X3X3X3X3X3X3X3X8XwXwXwXwXwXwXqX5X3X3X3XY.- - - - + O v qXwX8X3X3X3X3X6X3X3X6X3X3X3X3X",
"3X3X3X3X6X3X3X3X3X3X3X3X3X3X3X7X8X9X8X8X8X9X8X3X3X3X4XJ.X + - : +   c 3X8X7X3X3X3X3X3X3X3X3X3X3X3X3X",
"3X3X3X3X3X3X3X3X3X3X3X3X3X3X3X3X3X6X6X6X3X3X3X3X3X3X8XJ.X + : : + X c 2X3X3X3X3X3X3X3X3X3X3X3X3X3X3X",
"3X3X3X3X3X5X3X3X3X3X3X3X3X3X3X3X3X3X3X3X3X3X3X3X3X3X7X&XE.Q.Q.[.Q.Q.OX3X3X3X3X3X3X3X3X3X3X3X3X3X3X3X",
"3X3X3X3X3X3X3X6X3X3X3X3X3X3X3X3X6X3X3X3X3X3X3X3X3X3X3X3X7X7X7X7X6X8X6X6X3X3X3X3X3X3X3X3X3X3X3X3X3X3X"
};
