/* XPM */
static char *d9e753a4051f47598b28696b8cb0ee64AbA2vFHyfemD0yTJ[] = {
/* columns rows colors chars-per-pixel */
"50 50 214 2 ",
"   c None",
".  c #000001",
"X  c #000009",
"o  c #040C02",
"O  c #1C0B07",
"+  c #1C120C",
"@  c #191616",
"#  c #000E1A",
"$  c #2B0406",
"%  c #2F170F",
"&  c #292219",
"*  c #000B22",
"=  c #1D262A",
"-  c #322E2D",
";  c #490001",
":  c #400002",
">  c #5A110E",
",  c #5D0013",
"<  c #581917",
"1  c #4B130C",
"2  c #6B0103",
"3  c #730000",
"4  c #7A0002",
"5  c #770A0D",
"6  c #72140B",
"7  c #640012",
"8  c #6D0116",
"9  c #790414",
"0  c #6A1712",
"q  c #751B14",
"w  c #7C1A15",
"e  c #741618",
"r  c #63190E",
"t  c #592F01",
"y  c #4A3204",
"u  c #473001",
"i  c #5C3B08",
"p  c #483310",
"a  c #7A2617",
"s  c #7C3413",
"d  c #70310F",
"f  c #583928",
"g  c #563A31",
"h  c #49342C",
"j  c #6A3626",
"k  c #793935",
"l  c #745307",
"z  c #7A5618",
"x  c #6D4C00",
"c  c #5F422D",
"v  c #5B483C",
"b  c #64432F",
"n  c #744823",
"m  c #684835",
"M  c #734D35",
"N  c #765139",
"B  c #7B5539",
"V  c #77512A",
"C  c #5D5E5D",
"Z  c #685142",
"A  c #715445",
"S  c #7A655C",
"D  c #705276",
"F  c #747172",
"G  c #880000",
"H  c #9A0000",
"J  c #8E0017",
"K  c #8E0018",
"L  c #910017",
"P  c #960019",
"I  c #98071A",
"U  c #831B16",
"Y  c #861919",
"T  c #941A17",
"R  c #961A18",
"E  c #991B19",
"W  c #892516",
"Q  c #892A16",
"!  c #95241A",
"~  c #962918",
"^  c #8B370D",
"/  c #8D1F22",
"(  c #941F23",
")  c #8B2527",
"_  c #9B2E2E",
"`  c #995A06",
"'  c #9B4E13",
"]  c #8F4816",
"[  c #A15A10",
"{  c #A05C0F",
"}  c #996601",
"|  c #9B6900",
" . c #8A6413",
".. c #9E6217",
"X. c #A26E02",
"o. c #A26600",
"O. c #A57203",
"+. c #AC7504",
"@. c #AE7A0B",
"#. c #A87509",
"$. c #B27C0C",
"%. c #B57C03",
"&. c #A86915",
"*. c #AB7514",
"=. c #B67916",
"-. c #855331",
";. c #8B612C",
":. c #A86F2F",
">. c #C07B1E",
",. c #905D4F",
"<. c #9E6A4B",
"1. c #976346",
"2. c #93615F",
"3. c #A26D4D",
"4. c #A7734D",
"5. c #AB7451",
"6. c #A77250",
"7. c #B67B57",
"8. c #B27146",
"9. c #AB7B61",
"0. c #C97E4A",
"q. c #BC8306",
"w. c #B78111",
"e. c #BC8513",
"r. c #BE8815",
"t. c #BC811E",
"y. c #C28B16",
"u. c #C4821F",
"i. c #C48C19",
"p. c #C88F19",
"a. c #CC931B",
"s. c #D49A1E",
"d. c #D0971D",
"f. c #CF9400",
"g. c #CA9326",
"h. c #D69C22",
"j. c #D99F21",
"k. c #D2992A",
"l. c #C68320",
"z. c #DDA323",
"x. c #E1A624",
"c. c #E4A924",
"v. c #E9AC26",
"b. c #E5A929",
"n. c #EEB02A",
"m. c #EEAF2B",
"M. c #FFC22D",
"N. c #B88658",
"B. c #BC8967",
"V. c #B18F7D",
"C. c #C4845C",
"Z. c #D68956",
"A. c #C68962",
"S. c #D38E64",
"D. c #C3946C",
"F. c #DB9569",
"G. c #D79469",
"H. c #DD9F72",
"J. c #E1986A",
"K. c #C9A474",
"L. c #DBA87A",
"P. c #E4AB78",
"I. c #3B5390",
"U. c #3C67A9",
"Y. c #3E68A9",
"T. c #465B94",
"R. c #6B5983",
"E. c #7D5982",
"W. c #5B6A96",
"Q. c #5B699A",
"!. c #5F628F",
"~. c #616F9F",
"^. c #456CAC",
"/. c #536DA4",
"(. c #5E79AF",
"). c #5A74A9",
"_. c #4D72B3",
"`. c #547CB6",
"'. c #5C7BB2",
"]. c #527AB6",
"[. c #6277AA",
"{. c #9F948E",
"}. c #898A8B",
"|. c #A79C97",
" X c #A0948F",
".X c #9BA3B1",
"XX c #AEB5BA",
"oX c #B2B6B9",
"OX c #A7AFB6",
"+X c #8892AA",
"@X c #D5A487",
"#X c #C8A890",
"$X c #E5AE81",
"%X c #EAB586",
"&X c #F5BE8C",
"*X c #E1B39E",
"=X c #BFC2B5",
"-X c #EDC7AB",
";X c #BDC3CB",
":X c #CED1C6",
">X c #D5D7DB",
",X c #C6CBD4",
"<X c #E1D3C9",
"1X c #DEE0D8",
"2X c #EEE5DC",
"3X c #DBDFE9",
"4X c #DEE2EC",
"5X c #DEE0E7",
"6X c #EFEFED",
"7X c #EAE5E3",
"8X c #F3F3F2",
"9X c #FFFFFF",
"0X c #F8F8F7",
"qX c #F1E8E0",
/* pixels */
"                                                                                                    ",
"                                      X.y.c.p.} a.x.z.x.w.X.                                        ",
"                                      %.p.n.a.O.s.v.c.c.y.+.                                        ",
"                                  | w.z.s.x.z.j.z.z.x.z.j.z.$.X.                                    ",
"                                  $.y.z.z.z.z.x.x.z.z.x.z.x.e.#.                                    ",
"                              X.$.c.d.| r.c.z.z.z.z.z.z.z.z.z.z.*.X.                                ",
"                              @.y.x.s.#.y.h.j.z.z.z.z.z.z.z.x.z.%.*.                                ",
"                              c.x.x.z.x.a.} y.x.z.z.z.z.z.z.z.b.+.N.9X9X                            ",
"                              g.g.s.h.z.a.@.a.x.z.z.z.z.z.z.s.k.o.4.7X2X                            ",
"                      x.v.a 5 8 s O.e.z.z.x.z.z.z.z.x.x.x.x.w.X.s 8 2 d ` #X9X0X                    ",
"                      z.x.s e Y ^ } =.z.z.z.z.z.z.x.h.a.d.a.&.` Q w e n %.K.qX2X                    ",
"                  X.%.z.j.8 8 E ! , ..v.x.c.x.c.x.c.e.| O.O.s 7 R E 8 ] c.h.^ #X9X9X                ",
"                  r.y.z.j.*.&.! ! 9 ' l.u.u.u.u.u.l.&.` ..{ ^ U ( ~ ] ..x.k.f.K.qX<X                ",
"              O.q.j.c.z.z.m.j.J K I P L L J L L L P P P P P P P K P O.@.z.j.b.f.` `                 ",
"              #.+.h.z.z.j.p.i.>.=.{ ' Q ! ~ ! Q Q Q W W W Q ' [ =.=.y.p.z.z.x.k.k.g.                ",
"              O.q.j.x.z.j.| #.c.k.O.` , 9 L 9 7 7 7 7 7 7 7 } +.z.c.b.x.x.x.b.b.n.c.                ",
"                  z.x.z.z.a.a.z.h.a.i.=.t.u.t.t.t.t.t.t.t.t.i.a.z.z.z.s.r.p.v.z.                    ",
"                  x.n.z.z.c.x.z.z.x.b.b.c.c.x.c.c.c.c.x.c.c.x.x.x.z.z.z.} @.n.v.                    ",
"                      z.z.e.e.e.p.z.z.z.z.z.z.z.z.z.j.z.z.z.z.z.r.e.e.e.s.r. . .                    ",
"                      c.c.*.#.} @.x.z.z.x.z.z.x.z.x.z.x.z.z.z.z.+.X.X.@.n.g.. .                     ",
"                      l z n ;.s.a.w.=.e.w.w.e.=.w.w.e.w.w.w.w.w.;.V i i l x                         ",
"                      . X h ;.z.h.| O.X.X.O.X.X.X.X.X.X.X.X.O.X.M c X . . .                         ",
"                          8X7X;.z p u y y y y y y y y y y y y u % & . C 0X6X                        ",
"                          9X8Xm h # X . . . . . . . X . . X X X . @ . F 9X9X                        ",
"                          S S b M 5.1.6 r o 1 q 1 o o o 0 q <.6.b b <.<.S S                         ",
"                          i j N -.3.1.5 r . > U > $ $ O 0 w <.3.M N 7.6.n n                         ",
"                      5.5.g A S.7.. 1 q q 0 U E T T w 0 q q % % <.7.S.S.G.N.g m                     ",
"                      5.7.N 1.J.A.. > w w w Y E T R Y w w w : $ 1.5.S.S.G.A.A A                     ",
"                  3.5.6.5.G.H.&XL.2 U E T R R R R R R T R R w a j N G.G.F.C.; ;                     ",
"                  A.A.7.7.A.A.K.D.4 Y E R E R R T R R R R R U a j M B.A.C.B.|.{.                    ",
"              5.7.P.%XG.S.7.<.c j E E R R T R T R R R R R R R R w 6 ; t ; {.9X9X    9X              ",
"              <.<.P.%XL.G.3.,.c j E R R R R R R R R R R T R R ( 4 k |.|.t {.9X9X    9X              ",
"              c m P.&X&X%XN f . ; E E R R R R R R R R R E E E _ 4 2.9X9X            9X              ",
"                m B.D.D.D.N c # < ) ) ( ( ( / U ( ( ( ( ( ( / ) 3 2.8X9X          9X9X              ",
"                  f f f f         3 G H H H G 2 G H H H H H 4 2         9X9X9X9X9X9X9X              ",
"                    M M         !.R.R.E.E.E.E.D D E.E.E.E.E.R.R.W.            9X9X9X                ",
"                              ~.).`.`.`.`.`.).W.'.`.].].].].'.'.[.W.            9X9X                ",
"                              W.~.'.(.(.(.(.).).[./.).'.'.'.(.'.~.W.                                ",
"                              I.T._.^.U.Y.U.^._.Q.!./._.^.U.U.Y.Q.T.                                ",
"                          9X0X7X>XOX;X4X5X4X,XoX+XT..XXX>X3X3X3XXXXX9X9X                            ",
"                          9X9X9X0X=X1X9X9X9X8X:X.XI.oX<X0X9X9X9X:X:X9X9X                            ",
"                              9X9X0X>XF }.}.}.      V. X#X*X-X-X@X@X                                ",
"                              9X9X9X>X. . .         :.5.Z.Z.P.P.J.S.                                ",
"                              9X9X9X0X6X6X9X6X      G.J.P.$X%X%XC.5.                                ",
"                              9X9X9X9X9X9X9X9X      S.J.L.%X$X$XB.7.                                ",
"                                  9X9X9X9X9X9X      v m Z Z g v 0X0X                                ",
"                                  9X9X9X9X9X        = = = = . * 0X9X                                ",
"                                                    + + - h & +                                     ",
"                                                    . . - - @ .                                     ",
"                                                                                                    "
};
