/* XPM */
static char *result[] = {
/* columns rows colors chars-per-pixel */
"50 50 161 2 ",
"   c #010101",
".  c #080705",
"X  c #070805",
"o  c #090A06",
"O  c #070709",
"+  c #090708",
"@  c #0C0B0B",
"#  c #110E0D",
"$  c #0F100A",
"%  c #11120D",
"&  c #0F0F11",
"*  c #131411",
"=  c #1A1B15",
"-  c #1D1D1A",
";  c #1F2015",
":  c #252317",
">  c #24241C",
",  c #28291D",
"<  c #252525",
"1  c #272824",
"2  c #2A2A25",
"3  c #26262A",
"4  c #272828",
"5  c #2A2A2A",
"6  c #312E25",
"7  c #322F2B",
"8  c #2F3029",
"9  c #323225",
"0  c #383625",
"q  c #34342D",
"w  c #39352E",
"e  c #37392D",
"r  c #3B3B2C",
"t  c #353532",
"y  c #3A3632",
"u  c #373932",
"i  c #3C3C34",
"p  c #3F3F3E",
"a  c #403E2D",
"s  c #403D35",
"d  c #3F4232",
"f  c #3F403B",
"g  c #424136",
"h  c #44443C",
"j  c #49473D",
"k  c #4B4A3C",
"l  c #504F3E",
"z  c #3E3E41",
"x  c #403F43",
"c  c #424242",
"v  c #494745",
"b  c #4C4B43",
"n  c #47474A",
"m  c #4B4B4B",
"M  c #504E44",
"N  c #504F4A",
"B  c #4F5244",
"V  c #535346",
"C  c #5A5847",
"Z  c #53534A",
"A  c #58574B",
"S  c #57594C",
"D  c #5B5B4C",
"F  c #505050",
"G  c #5C5B52",
"H  c #5D5C58",
"J  c #605E54",
"K  c #5F6154",
"L  c #5F6058",
"P  c #62614F",
"I  c #636355",
"U  c #686655",
"Y  c #666855",
"T  c #6A6957",
"R  c #656559",
"E  c #68675A",
"W  c #67685B",
"Q  c #6B6B5C",
"!  c #706F5D",
"~  c #72735E",
"^  c #6C6C62",
"/  c #706E63",
"(  c #726F68",
")  c #6F7163",
"_  c #737364",
"`  c #797766",
"'  c #767967",
"]  c #797967",
"[  c #74746B",
"{  c #79776B",
"}  c #7B7B6C",
"|  c #7D7D72",
" . c #817E72",
".. c #807F78",
"X. c #7E806E",
"o. c #7F8075",
"O. c #7F8078",
"+. c #81806E",
"@. c #858475",
"#. c #888775",
"$. c #84847B",
"%. c #89877A",
"&. c #87887F",
"*. c #8B8A7C",
"=. c #858680",
"-. c #878880",
";. c #8C8D82",
":. c #8F8F8D",
">. c #908E83",
",. c #8F9183",
"<. c #8F9088",
"1. c #939385",
"2. c #94948A",
"3. c #99978A",
"4. c #9B9A8C",
"5. c #9C9B93",
"6. c #9E9E9A",
"7. c #A09E92",
"8. c #9FA093",
"9. c #A2A08F",
"0. c #A3A395",
"q. c #A4A49B",
"w. c #A8A69A",
"e. c #ADAC9D",
"r. c #B0AF9F",
"t. c #B2B19F",
"y. c #A4A5A1",
"u. c #A8A7A0",
"i. c #ACACA5",
"p. c #ADADA8",
"a. c #B0AFA4",
"s. c #B2B2A5",
"d. c #B4B4AB",
"f. c #B9B7AD",
"g. c #BCBAAC",
"h. c #BCBCB1",
"j. c #C3C3B5",
"k. c #C6C5BB",
"l. c #C9C7BA",
"z. c #CACABD",
"x. c #CDCDC2",
"c. c #D0CFC5",
"v. c #D3D1C5",
"b. c #D2D3CB",
"n. c #D9D9CF",
"m. c #D7D7D4",
"M. c #DDDCD4",
"N. c #DEDFD9",
"B. c #DFE0D9",
"V. c #E1E0D4",
"C. c #E6E3DC",
"Z. c #EAEBDF",
"A. c #EBEBE6",
"S. c #EDEDE9",
"D. c #F0EFEC",
"F. c #F3F4EC",
"G. c #F6F6F3",
"H. c #F7F8F4",
"J. c #FAFBF5",
"K. c #F7F6F9",
"L. c #FEFEFD",
/* pixels */
"L.L.L.L.L.L.L.L.L.L.L.L.K.K.L.L.K.L.K.G.J.L.F.z.l.z.z.V.L.L.L.H.J.L.H.L.K.K.L.L.L.L.L.L.L.L.L.L.L.L.",
"L.L.L.L.L.L.L.L.L.L.L.G.J.L.G.G.J.J.G.L.A.3.q.4.t.3.*.0.g.g.M.L.H.J.G.K.K.K.L.K.L.L.L.L.L.L.L.L.L.L.",
"L.L.L.L.L.L.L.L.L.L.L.L.L.H.K.J.L.L.h.^ o.' e.9.t.9.#.+.r.f.J ^ J.F.J.K.K.L.L.L.L.L.L.L.L.L.L.L.L.L.",
"L.L.L.L.L.L.L.L.L.L.L.L.K.K.L.L.m.<.,.Z _ 4.] ! ` T T P ! &.} 0.Z.,.b.F.L.H.L.L.L.L.L.L.L.L.L.L.L.L.",
"L.L.L.L.L.L.L.L.L.L.J.G.H.L.A.2.I 8.k.q.d X.' ' ~ ~ ~ ~ T C I z.Y 0.*.4.L.J.J.L.L.L.L.L.L.L.L.L.L.L.",
"L.L.L.L.L.J.L.L.L.L.J.H.L.F.J $.j.5.' #.X.C ' ' ' X.Y I I r e.#.Y Y X.,.5.L.H.H.J.K.L.L.L.L.L.L.L.L.",
"L.L.L.L.L.L.L.J.H.H.H.L.f.W S 3.,.I ) X.4.9 K Y I Y P P l r 9.Y X.X.X.k K z.L.H.L.J.L.L.L.L.L.L.L.L.",
"L.L.L.L.L.J.J.J.J.L.L.j.W V.>.k { o.) Q 3.Q h d ; 2 = f d I s._ K X.) k w.8.k.L.H.L.L.L.L.L.L.L.L.L.",
"L.L.L.L.L.K.L.L.G.L.n.D e.*. .k ^ { ( G V b 2   > f   O 8 9 [ | W ) f *.1.,.-.b.L.H.L.L.L.L.L.L.L.L.",
"L.L.L.L.L.K.G.H.J.V.V 9.#.! _ U j ( N s   t 1   1 f   O F $ $ e ) K X.0.K _ 2.o.B.L.L.L.L.L.L.L.L.L.",
"L.L.L.L.L.L.L.G.L.O.%.4.Q ] _ _ J 7 y #   s 4   5 z   & n @   d 2 f 2.O.Q o.K 8.-.A.L.L.L.L.L.L.L.L.",
"L.L.L.L.L.H.H.L.b.k *.~ Q _ ^ ^ y . v & O c 3   3 x   & m &   p < O Z ^ W ) ) X.[ p.L.L.L.L.L.L.L.L.",
"L.L.L.L.L.L.L.A.&./ , C ) W ^ f   + m &   p <   < z   @ m &   z 5   * G ^ E A V I J L.J.H.H.F.L.L.L.",
"L.L.L.L.L.K.L.D.{ v._ d B S G 1   + n &   p <   < c   X n $   c 3   = n G I V 3.h.;.c.J.H.F.L.L.L.L.",
"L.L.L.L.L.J.L.f.2.` 7.k.B e q u   + n &   p <   < z   O n *   p <   1 t > h w.e.Q 4.&.L.D.L.H.L.L.L.",
"L.L.L.L.L.D.L.2.4.! I 3.5.o 1 v   + m &   c <   < c   @ n @   c <   1 p   2 &.E  .3.3.J.H.J.G.L.L.L.",
"L.L.L.L.L.L.A.l.@.{ _ | b   1 p   O n &   z <   < c   O n @   c 5   < c   = Z %.^ %.0.f.L.F.L.L.L.L.",
"L.L.L.L.H.L.a.7.4.W ) _ 2   1 c   O n &   z 4   < c   @ m %   c 5   < h .   s | I / 3.7.F.L.L.K.L.L.",
"L.L.L.L.J.L.v.V ^ ` G ^ 2   4 z   O n %   z <   < z   X m @   p 4   < z   . g Q P M &.^ A.L.J.L.L.L.",
"L.L.L.L.J.J.v.+.M : S h =   5 z   O m @   s 4   < p   O m @   p 3   < s   X h r h I ;.^ x.L.J.L.L.L.",
"L.L.L.L.J.J.*.1.0.*.h 2 <   < z   O m &   z 4   1 z   @ F &   c 1   1 x   o c 6 *.g.j._ ( L.J.L.L.L.",
"L.L.L.L.J.J.t.T #.0.{ y >   < z   O m O   p <   < c   X m @   p 1   < s   o v s a.] E ^ <.L.K.K.L.L.",
"L.L.L.J.J.J.w.J | _ b v 1   3 c   O m &   p <   < p   O m @   p 1   < x   o s r 3.T  .I -.L.H.L.L.L.",
"L.L.L.L.J.L.h.! @.} S v <   3 z   O m &   p <   1 z   @ m @   p 1   < s   # h s 7.U @.I :.L.G.L.L.L.",
"L.L.L.L.L.L.s.C U ^ G v <   < z   O m @   p 3   < z   O m @   h 1   < c   @ s s w.C ' V | L.L.K.L.L.",
"L.J.L.L.L.L.s.l / ^ v m <   < c   @ n &   c <   1 x   X m @   z <   < c   O c y s.! ' h -.L.G.L.L.L.",
"J.L.L.L.L.F.D g j r t N <   3 x   O m $   p 1   < p   + m @   p <   < z   + v 2 C r r 2 [ L.H.L.L.L.",
"L.L.L.L.L.F.3.e.7.5.N m >   4 s   O n @   p <   < p   O m @   p <   < c   @ c w 3.e.4.<.-.L.K.L.L.L.",
"L.L.L.L.L.J.j.` *.>.m m <   < p   O v @   p <   < f   O m @   z 1   < c   @ h y r.@.#.o.;.L.G.L.L.L.",
"L.L.L.L.L.J.t.P ( ^ N v <   < z   O m $   p 3   < c   @ m *   f <   < x   + v s w.C ' Q 2.L.J.L.L.L.",
"L.L.L.L.L.J.9.U ` I G c <   < p   O m @   p <   < z   O m @   p <   < c   + h y w.Q } K ;.L.K.L.L.L.",
"L.J.L.L.L.L.e.C S { H n <   < h   X n &   c <   < c   @ m @   p <   < x   @ v e d.Y Y Z $.L.L.L.L.L.",
"L.L.L.L.L.L.0.k T ` Z m <   < x   O n @   h 1   < z   O F @   p <   < c   @ v w 3.P Y Z $.L.J.L.L.L.",
"J.L.L.L.L.F.D 0 g M 7 F <   < p   O n %   z <   < c   X m @   c 1   < z   + v 7 V a 0 q O.L.G.L.L.L.",
"L.L.L.L.L.G.r.r.a.0.N m <   < h   X n &   p <   < c   O m @   p <   < z   + x s 7.r.g.2.-.L.J.L.L.L.",
"J.L.L.L.J.J.s./ @.` c m 3   < z   X m @   p 3   < c   X m @   p <   < c   @ x s w.T ! E -.L.K.L.L.L.",
"L.L.L.L.J.L.a.R [ | Z v <   < n   O n #   p 3   < z   O m *   z 4   3 z   @ n w e.Q @.W $.L.J.L.L.L.",
"L.L.L.L.L.L.p.} T / b n 4   < h   O n @   z 5   3 c   @ m @   z 1   < z O O s y 7.) X.G $.L.K.L.L.L.",
"L.L.L.L.J.L.0.R Q Q G n <   3 n   * m *   n 7   5 n   @ F @   c 1   4 n   O n s 0.Y I Z $.L.H.L.L.L.",
"L.L.L.L.J.L.q.j J R i < @   * -   O - @   - *   * -   O < O   - &   * -   O - 6 3.C I i | L.H.L.L.L.",
"L.L.L.L.L.A.J M j M s #   +             @     O     O     O     . X       .   : A k b d [ L.H.L.L.L.",
"L.L.L.L.L.G.p.q.a.7.G *   O . O   X X X O X @   @ @ @ O $ O @ & o X @ @ + # . 9 e.3.4.;.[ L.K.L.L.L.",
"L.L.L.L.J.L.5.h A I M *   .   . X X X X o $ $ % * * * = * * = * % = % = = # # y 1.l A h $.L.G.L.L.L.",
"L.L.L.L.J.L.2.M D J N %     .   X X @ @ $ * * = - ; - ; ; ; ; ; ; - - - - ; = w %.A R s [ L.J.L.L.L.",
"L.L.L.L.J.L. .s k j b *     o o $ % * ; = ; < ; 1 1 2 2 2 2 2 2 2 2 2 1 1 , , s *.B G e ( L.H.L.L.L.",
"L.L.L.L.L.L.| r g s h % . X % % * * ; < < 2 8 8 q t u q q u q 8 q q q q w 9 9 s | r h 6 [ L.K.L.L.L.",
"L.L.L.L.L.J.^ 0 g g i * $ % ; ; < < 5 q u u f f f f h h h h v h v h h h h s h b ^ w h , ^ L.J.L.L.L.",
"L.L.L.L.L.H.6 = : : >       $ $ = ; ; 5 t u u i d d i i i i d i i i f d r s s : : = > $ L D.A.K.L.L.",
"L.L.L.L.L.K.q.6.q.6.q.:.:.:.5.5.5.6.8.y.p.y.u.d.f.d.f.i.i.u.u.i.i.i.y.p.y.i.p.8.6.5.5.5.d.m.A.L.L.L.",
"L.L.L.L.L.L.L.L.L.L.L.L.L.L.L.L.L.L.L.L.L.L.C.2.3.2.5.k.L.L.L.L.L.L.L.L.L.L.L.L.L.L.L.L.L.L.L.L.L.L."
};
